<svg width="159" height="36" viewBox="0 0 159 36" fill="none" xmlns="http://www.w3.org/2000/svg">
<g clip-path="url(#clip0_1_2)">
<path d="M1.83741 1.00434L14.7408 14.7867L14.7575 5.94948C14.7588 5.23816 14.7516 4.61887 14.7359 4.09162C14.7202 3.556 14.6959 3.09568 14.6632 2.71067C14.6305 2.31728 14.5892 1.99083 14.5395 1.73131C14.4982 1.47181 14.4526 1.25414 14.4027 1.0783L14.4028 1.02809L16.6372 1.03232L16.6371 1.08253C16.5865 1.25817 16.5401 1.47567 16.4978 1.73501C16.4554 1.99436 16.4171 2.32066 16.3829 2.71392C16.3487 3.09881 16.3228 3.55903 16.305 4.09458C16.2873 4.62177 16.2777 5.24103 16.2764 5.95235L16.2512 19.2835L15.8118 19.2826L2.90843 5.51284L2.8922 14.099C2.89085 14.8103 2.89804 15.4338 2.91377 15.9694C2.92951 16.4966 2.95375 16.9528 2.9865 17.3378C3.01925 17.7228 3.05629 18.0451 3.09765 18.3046C3.139 18.5641 3.18461 18.7817 3.23449 18.9576L3.2344 19.0078L1 19.0036L1.00009 18.9534C1.05064 18.7777 1.09708 18.5602 1.13941 18.3009C1.19011 18.0415 1.23256 17.7194 1.26676 17.3345C1.30097 16.9496 1.32693 16.4936 1.34467 15.9664C1.36242 15.4309 1.37196 14.8074 1.37331 14.0961L1.38876 5.92421C1.3901 5.21288 1.38291 4.59359 1.36717 4.06634C1.35144 3.53073 1.32721 3.07041 1.29446 2.68539C1.26173 2.29201 1.2205 1.96555 1.17078 1.70603C1.12943 1.44653 1.08382 1.22886 1.03394 1.05303L1.03403 1.00282L1.83741 1.00434ZM28.3495 0.753193C29.7471 0.755836 31.0354 0.988407 32.2145 1.4509C33.402 1.90505 34.4259 2.54718 35.2863 3.3773C36.1467 4.19905 36.8185 5.18781 37.3017 6.34358C37.7849 7.49936 38.0252 8.77602 38.0225 10.1736C38.021 10.9686 37.9275 11.7509 37.7419 12.5204C37.5563 13.29 37.283 14.0175 36.9218 14.7031C36.5691 15.3886 36.1327 16.0238 35.6127 16.6086C35.0928 17.1851 34.4977 17.6861 33.8274 18.1116C33.1655 18.5288 32.4326 18.8538 31.6288 19.0866C30.825 19.3277 29.9586 19.4474 29.0297 19.4457C27.6321 19.4431 26.3396 19.2188 25.1521 18.7731C23.973 18.3189 22.9533 17.681 22.0928 16.8592C21.2324 16.0375 20.5606 15.0529 20.0774 13.9055C19.5942 12.7497 19.354 11.4689 19.3566 10.063C19.3581 9.26795 19.4517 8.48567 19.6372 7.71611C19.8228 6.94655 20.092 6.21481 20.4448 5.52088C20.8059 4.82698 21.2423 4.19179 21.7539 3.61532C22.2738 3.03051 22.8647 2.52533 23.5267 2.09978C24.197 1.67425 24.934 1.34509 25.7378 1.11228C26.55 0.871136 27.4206 0.751437 28.3495 0.753193ZM29.0318 18.3159C29.9607 18.3177 30.8105 18.1519 31.581 17.8186C32.3515 17.4854 33.0136 17.0012 33.5671 16.3663C34.129 15.7313 34.5656 14.9581 34.877 14.0465C35.1884 13.1265 35.3451 12.0849 35.3473 10.9217C35.3498 9.63293 35.2014 8.44012 34.9022 7.34328C34.6114 6.23807 34.1738 5.28323 33.5896 4.47874C33.0053 3.66589 32.2742 3.03268 31.3964 2.57911C30.5269 2.1172 29.5106 1.88514 28.3474 1.88294C27.4185 1.88119 26.5687 2.04695 25.7982 2.38024C25.0277 2.70516 24.3615 3.1809 23.7996 3.80749C23.2461 4.43408 22.8137 5.20317 22.5023 6.11476C22.1909 7.02634 22.0342 8.06375 22.032 9.22698C22.0295 10.5074 22.1737 11.7044 22.4645 12.8179C22.7553 13.9231 23.1929 14.8822 23.7771 15.695C24.3614 16.5079 25.0924 17.1494 25.9702 17.6197C26.8481 18.0817 27.8686 18.3137 29.0318 18.3159ZM49.0868 0.792399C50.4843 0.795041 51.7726 1.02761 52.9517 1.49011C54.1392 1.94426 55.1631 2.58639 56.0235 3.4165C56.8839 4.23825 57.5557 5.22701 58.0389 6.38279C58.5221 7.53857 58.7624 8.81523 58.7598 10.2128C58.7583 11.0078 58.6647 11.7901 58.4792 12.5596C58.2936 13.3292 58.0202 14.0567 57.6591 14.7423C57.3063 15.4278 56.87 16.063 56.35 16.6478C55.8301 17.2243 55.2349 17.7253 54.5647 18.1508C53.9027 18.568 53.1699 18.893 52.3661 19.1258C51.5622 19.3669 50.6958 19.4867 49.7669 19.4849C48.3694 19.4823 47.0769 19.258 45.8894 18.8123C44.7103 18.3581 43.6905 17.7202 42.8301 16.8984C41.9697 16.0767 41.2979 15.0921 40.8147 13.9447C40.3315 12.7889 40.0912 11.5081 40.0939 10.1022C40.0954 9.30716 40.1889 8.52487 40.3745 7.75531C40.56 6.98576 40.8292 6.25401 41.182 5.56009C41.5432 4.86618 41.9795 4.23099 42.4911 3.65453C43.0111 3.06971 43.602 2.56453 44.2639 2.13899C44.9342 1.71346 45.6713 1.38429 46.4751 1.15149C47.2873 0.910341 48.1579 0.790643 49.0868 0.792399ZM49.7691 18.3551C50.698 18.3569 51.5477 18.1911 52.3182 17.8578C53.0888 17.5246 53.7508 17.0404 54.3043 16.4055C54.8662 15.7705 55.3029 14.9973 55.6142 14.0857C55.9256 13.1657 56.0824 12.1241 56.0846 10.9609C56.087 9.67213 55.9386 8.47933 55.6395 7.38248C55.3486 6.27728 54.9111 5.32244 54.3268 4.51795C53.7426 3.70509 53.0115 3.07188 52.1337 2.61832C51.2642 2.1564 50.2479 1.92435 49.0846 1.92215C48.1557 1.92039 47.306 2.08616 46.5355 2.41944C45.7649 2.74436 45.0987 3.22011 44.5369 3.84669C43.9833 4.47329 43.5509 5.24238 43.2395 6.15396C42.9282 7.06555 42.7714 8.10296 42.7692 9.26618C42.7668 10.5466 42.911 11.7436 43.2018 12.8571C43.4926 13.9623 43.9301 14.9214 44.5144 15.7342C45.0986 16.5471 45.8297 17.1886 46.7075 17.6589C47.5853 18.1209 48.6058 18.3529 49.7691 18.3551ZM64.2378 14.2149C64.2364 14.9263 64.2436 15.5497 64.2594 16.0854C64.2835 16.6126 64.3077 17.0688 64.3321 17.4538C64.3648 17.8388 64.4019 18.161 64.4432 18.4205C64.493 18.6801 64.5428 18.8977 64.5926 19.0736L64.5925 19.1238L61.5799 19.1181L61.58 19.0679C61.6305 18.8922 61.6769 18.6747 61.7193 18.4154C61.77 18.1561 61.8083 17.8339 61.8341 17.449C61.8683 17.0642 61.8943 16.6081 61.912 16.0809C61.9381 15.5538 61.9518 14.9303 61.9532 14.2106L61.9686 6.03874C61.97 5.32741 61.9586 4.70812 61.9345 4.18085C61.9188 3.64523 61.8945 3.18491 61.8618 2.7999C61.8374 2.4149 61.8004 2.09264 61.7506 1.83312C61.7093 1.56525 61.6637 1.34339 61.6138 1.16756L61.6139 1.11735L62.141 1.16855C62.3 1.18559 62.4757 1.19848 62.6682 1.20721C62.869 1.20759 63.074 1.20798 63.2833 1.20837C63.6096 1.20899 64.0491 1.17216 64.6015 1.09789C65.1624 1.01526 65.8738 0.97477 66.7357 0.9764C67.5391 0.977918 68.2795 1.08811 68.957 1.30697C69.6428 1.52585 70.2363 1.84498 70.7377 2.26435C71.239 2.68373 71.6271 3.19913 71.9022 3.81056C72.1855 4.41363 72.3265 5.10012 72.3251 5.87002C72.3239 6.47256 72.2434 7.0331 72.0834 7.55165C71.9318 8.06185 71.7133 8.52589 71.428 8.94378C71.151 9.36168 70.8156 9.73345 70.4217 10.0591C70.0277 10.3764 69.5879 10.6433 69.1021 10.86L73.4964 17.0568C73.7134 17.3669 73.9138 17.6351 74.0974 17.8614C74.2895 18.0877 74.469 18.2847 74.6361 18.4524C74.8115 18.6117 74.9787 18.7459 75.1375 18.855C75.2963 18.9557 75.4593 19.0355 75.6266 19.0944L75.6265 19.1446L71.9987 19.1378C71.9739 18.9787 71.8906 18.7694 71.7488 18.5097C71.6154 18.2416 71.4569 17.9777 71.2733 17.7179L66.8415 11.4457C66.649 11.4621 66.4565 11.4784 66.2639 11.4948C66.0715 11.5028 65.8748 11.5066 65.6739 11.5062C65.4396 11.5058 65.2011 11.497 64.9585 11.4798C64.7242 11.4626 64.4857 11.4329 64.2431 11.3906L64.2378 14.2149ZM64.245 10.4114C64.4708 10.4621 64.7009 10.5002 64.9352 10.5257C65.1695 10.5429 65.3954 10.5517 65.613 10.5521C66.2406 10.5533 66.814 10.4623 67.3332 10.2792C67.8525 10.0877 68.2923 9.79981 68.6529 9.41554C69.0219 9.03128 69.3073 8.55482 69.5092 7.98613C69.7112 7.40908 69.8129 6.73561 69.8143 5.9657C69.8155 5.33806 69.7454 4.76886 69.6041 4.25811C69.4628 3.74736 69.2503 3.31598 68.9664 2.96396C68.6909 2.6036 68.3399 2.32677 67.9135 2.13349C67.4871 1.93183 66.9894 1.83047 66.4203 1.82939C65.8429 1.8283 65.3825 1.85672 65.0393 1.91465C64.6961 1.97258 64.4366 2.03486 64.2607 2.10147L64.245 10.4114ZM92.0114 4.03687L91.7352 4.03635C91.6687 3.84374 91.5603 3.62595 91.4101 3.38298C91.2683 3.14003 91.0763 2.91371 90.834 2.70404C90.6001 2.48601 90.3117 2.30554 89.9688 2.16263C89.6344 2.01973 89.237 1.94785 88.7767 1.94698C88.3667 1.9462 88.0025 2.00828 87.6843 2.1332C87.366 2.25813 87.0979 2.43336 86.8799 2.6589C86.6703 2.88446 86.5107 3.15195 86.4014 3.46138C86.292 3.77081 86.237 4.11382 86.2362 4.4904C86.2351 5.09294 86.4014 5.67069 86.7351 6.22364C87.0772 6.76825 87.5029 7.30882 88.0124 7.84538C88.5219 8.38193 89.0732 8.91856 89.6663 9.45527C90.2595 9.99198 90.8108 10.5495 91.3202 11.1279C91.8295 11.7063 92.251 12.3138 92.5845 12.9505C92.9265 13.5788 93.0967 14.257 93.0954 14.985C93.0943 15.529 92.9971 16.0769 92.8035 16.6289C92.6184 17.1725 92.3288 17.6615 91.9346 18.0959C91.5405 18.5304 91.0335 18.8851 90.4137 19.1601C89.7939 19.4267 89.0572 19.5592 88.2037 19.5576C87.7267 19.5567 87.2707 19.5098 86.8357 19.4169C86.409 19.3324 86.0117 19.227 85.6437 19.1008C85.2841 18.9662 84.958 18.8234 84.6654 18.6722C84.3812 18.521 84.1471 18.3825 83.9633 18.2566L84.2572 15.483L84.571 15.4836C84.6623 15.8771 84.8123 16.2539 85.0208 16.6142C85.2293 16.9661 85.484 17.2804 85.7847 17.5571C86.0939 17.8255 86.4449 18.0437 86.8379 18.2118C87.231 18.3716 87.6618 18.4519 88.1304 18.4528C88.5572 18.4536 88.9381 18.3915 89.2731 18.2666C89.6165 18.1334 89.9097 17.954 90.1528 17.7285C90.3959 17.4947 90.5806 17.2189 90.7067 16.9011C90.8412 16.5833 90.9088 16.2362 90.9095 15.8596C90.9105 15.3324 90.8152 14.8468 90.6236 14.4029C90.4319 13.9507 90.1775 13.5234 89.8603 13.1211C89.5514 12.7188 89.1964 12.329 88.7955 11.9517C88.4029 11.5743 87.9977 11.197 87.58 10.8196C87.1623 10.4339 86.753 10.0398 86.352 9.6373C85.9595 9.23486 85.6046 8.80739 85.2875 8.35489C84.9787 7.89404 84.7286 7.404 84.5371 6.88479C84.3456 6.35721 84.2504 5.77959 84.2516 5.15195C84.2529 4.49084 84.3795 3.89691 84.6316 3.37017C84.892 2.83507 85.2318 2.37963 85.651 2.00383C86.0785 1.62805 86.5602 1.34025 87.0962 1.14042C87.6321 0.940589 88.1846 0.84121 88.7537 0.842286C89.1721 0.843077 89.557 0.877279 89.9084 0.944892C90.2597 1.0125 90.5734 1.0926 90.8494 1.18517C91.1337 1.27776 91.3804 1.37028 91.5895 1.46273C91.7985 1.55518 91.9699 1.63082 92.1037 1.68966L92.0114 4.03687ZM108.628 19.207V19.1568C108.645 19.115 108.658 19.0523 108.666 18.9686C108.675 18.8849 108.679 18.8096 108.679 18.7427C108.68 18.4833 108.643 18.1987 108.568 17.8889C108.502 17.5707 108.368 17.1772 108.168 16.7082L106.656 13.2909C106.187 13.2733 105.564 13.2637 104.786 13.2623C104.007 13.2608 103.166 13.2592 102.263 13.2575C101.601 13.2563 100.961 13.255 100.342 13.2539C99.7307 13.2527 99.1784 13.26 98.6846 13.2758L97.2348 16.5871C97.1087 16.8965 96.9741 17.2351 96.8312 17.6031C96.6882 17.971 96.6164 18.3433 96.6157 18.7199C96.6154 18.8287 96.6236 18.9207 96.6402 18.9961C96.6568 19.0631 96.6735 19.1091 96.6902 19.1343L96.6901 19.1845L94.1293 19.1796L94.1294 19.1294C94.2803 18.9707 94.4692 18.6907 94.6959 18.2894C94.9226 17.8798 95.1704 17.3698 95.4394 16.7594L102.663 0.81837L103.667 0.820268L110.454 16.1727C110.612 16.5328 110.775 16.8846 110.942 17.2281C111.117 17.5631 111.279 17.8647 111.429 18.1328C111.58 18.4009 111.713 18.6271 111.83 18.8114C111.947 18.9957 112.026 19.113 112.068 19.1633V19.2135L108.628 19.207ZM100.507 12.1746C100.993 12.1756 101.49 12.1765 102.001 12.1775C102.511 12.1701 103.009 12.1668 103.495 12.1677C103.989 12.1603 104.461 12.157 104.913 12.1579C105.365 12.1503 105.775 12.1428 106.143 12.1351L102.631 4.15737L99.1512 12.1721L100.507 12.1746ZM116.282 14.3133C116.281 15.0247 116.288 15.6481 116.304 16.1838C116.328 16.711 116.352 17.1672 116.376 17.5522C116.409 17.9372 116.446 18.2594 116.488 18.5189C116.537 18.7785 116.587 18.9961 116.637 19.172V19.2222L113.624 19.2165V19.1663C113.675 18.9906 113.721 18.7731 113.764 18.5138C113.814 18.2545 113.853 17.9323 113.878 17.5474C113.913 17.1625 113.939 16.7065 113.956 16.1793C113.982 15.6522 113.996 15.0287 113.997 14.309L114.013 6.13713C114.014 5.4258 114.003 4.80651 113.979 4.27924C113.963 3.74362 113.939 3.28331 113.906 2.89829C113.882 2.51329 113.845 2.19103 113.795 1.93151C113.754 1.66364 113.708 1.44179 113.658 1.26595V1.21574L114.185 1.26695C114.344 1.28399 114.52 1.29687 114.712 1.3056C114.913 1.30598 115.118 1.30637 115.328 1.30677C115.654 1.30738 116.093 1.27055 116.646 1.19628C117.207 1.11366 117.918 1.07316 118.78 1.07479C119.583 1.07631 120.324 1.1865 121.001 1.40536C121.687 1.62424 122.281 1.94337 122.782 2.36275C123.283 2.78212 123.671 3.29752 123.946 3.90895C124.23 4.51202 124.371 5.19851 124.369 5.96842C124.368 6.57095 124.288 7.13149 124.128 7.65004C123.976 8.16024 123.758 8.62428 123.472 9.04217C123.195 9.46008 122.86 9.83184 122.466 10.1575C122.072 10.4747 121.632 10.7417 121.146 10.9584L125.541 17.1552C125.758 17.4653 125.958 17.7335 126.142 17.9598C126.334 18.1861 126.513 18.3831 126.68 18.5508C126.856 18.7101 127.023 18.8443 127.182 18.9534C127.341 19.0541 127.504 19.1339 127.671 19.1928V19.243L124.043 19.2362C124.018 19.0771 123.935 18.8678 123.793 18.6081C123.66 18.34 123.501 18.0761 123.318 17.8163L118.886 11.5441C118.693 11.5605 118.501 11.5768 118.308 11.5932C118.116 11.6012 117.919 11.605 117.718 11.6046C117.484 11.6042 117.245 11.5954 117.003 11.5782C116.768 11.561 116.53 11.5313 116.287 11.489L116.282 14.3133ZM116.289 10.5098C116.515 10.5605 116.745 10.5986 116.979 10.6241C117.214 10.6413 117.44 10.6501 117.657 10.6505C118.285 10.6517 118.858 10.5607 119.378 10.3776C119.897 10.1861 120.337 9.89821 120.697 9.51393C121.066 9.12968 121.352 8.65321 121.553 8.08453C121.755 7.50748 121.857 6.834 121.859 6.06409C121.86 5.43645 121.79 4.86726 121.648 4.35651C121.507 3.84576 121.295 3.41437 121.011 3.06236C120.735 2.70199 120.384 2.42516 119.958 2.23188C119.531 2.03023 119.034 1.92886 118.465 1.92779C117.887 1.92669 117.427 1.95511 117.084 2.01305C116.74 2.07098 116.481 2.13325 116.305 2.19987L116.289 10.5098ZM141.265 19.2687L141.266 19.2185C141.282 19.1767 141.295 19.114 141.304 19.0303C141.312 18.9466 141.316 18.8713 141.317 18.8044C141.317 18.545 141.28 18.2604 141.205 17.9506C141.139 17.6324 141.006 17.2389 140.806 16.7699L139.293 13.3526C138.825 13.335 138.201 13.3254 137.423 13.324C136.645 13.3225 135.804 13.3209 134.9 13.3192C134.239 13.318 133.599 13.3167 132.979 13.3156C132.368 13.3144 131.816 13.3217 131.322 13.3375L129.872 16.6488C129.746 16.9582 129.612 17.2968 129.469 17.6648C129.326 18.0327 129.254 18.405 129.253 18.7816C129.253 18.8904 129.261 18.9824 129.278 19.0578C129.294 19.1248 129.311 19.1708 129.328 19.196V19.2462L126.767 19.2413V19.1911C126.918 19.0324 127.107 18.7524 127.333 18.3512C127.56 17.9415 127.808 17.4315 128.077 16.8211L135.3 0.880073L136.304 0.881971L143.091 16.2344C143.25 16.5946 143.412 16.9463 143.579 17.2898C143.754 17.6248 143.917 17.9264 144.067 18.1945C144.217 18.4626 144.35 18.6888 144.467 18.8731C144.584 19.0574 144.663 19.1747 144.705 19.225V19.2752L141.265 19.2687ZM133.144 12.2363C133.63 12.2373 134.128 12.2382 134.638 12.2392C135.149 12.2318 135.647 12.2285 136.132 12.2294C136.626 12.222 137.099 12.2187 137.551 12.2196C138.002 12.2121 138.413 12.2045 138.781 12.1968L135.269 4.21907L131.789 12.2338L133.144 12.2363ZM152.052 10.6528L152.045 14.381C152.044 15.0923 152.051 15.7158 152.067 16.2514C152.082 16.7786 152.107 17.2348 152.139 17.6198C152.172 18.0048 152.209 18.327 152.25 18.5866C152.3 18.8461 152.35 19.0637 152.4 19.2396V19.2898L149.387 19.2841V19.2339C149.438 19.0582 149.484 18.8407 149.527 18.5814C149.577 18.3221 149.616 18 149.641 17.615C149.676 17.2302 149.702 16.7741 149.719 16.2469C149.745 15.7114 149.759 15.088 149.76 14.3766L149.767 10.8995L144.17 3.25678C143.978 2.99699 143.786 2.75812 143.594 2.54017C143.411 2.32224 143.235 2.13362 143.068 1.9743C142.901 1.80661 142.751 1.66825 142.617 1.5592C142.483 1.45016 142.379 1.37046 142.304 1.32011V1.2699L146.107 1.27709C146.107 1.46956 146.186 1.78772 146.344 2.23155C146.51 2.66703 146.807 3.18226 147.232 3.77723L151.339 9.42123L155.379 3.54158C155.522 3.33263 155.665 3.1195 155.807 2.90219C155.95 2.68488 156.08 2.47591 156.198 2.27529C156.315 2.07466 156.408 1.89073 156.475 1.72348C156.551 1.55626 156.589 1.41406 156.589 1.2969L159.037 1.30153V1.35174C158.852 1.5104 158.605 1.74843 158.295 2.06585C157.984 2.3749 157.649 2.78851 157.288 3.30668L152.052 10.6528Z" fill="black"/>
<g clip-path="url(#clip1_1_2)">
<path d="M58.0458 31.1042C58.0453 31.3891 58.0482 31.6389 58.0545 31.8535C58.0641 32.0647 58.0738 32.2474 58.0836 32.4016C58.0967 32.5558 58.1116 32.6849 58.1281 32.7889C58.148 32.8928 58.168 32.98 58.188 33.0505L58.1879 33.0706L56.9811 33.0683L56.9812 33.0482C57.0014 32.9778 57.02 32.8907 57.037 32.7868C57.0573 32.6829 57.0726 32.5539 57.0829 32.3997C57.0967 32.2455 57.1071 32.0629 57.1142 31.8517C57.1246 31.6405 57.1301 31.3908 57.1307 31.1025L57.1368 27.829C57.1374 27.544 57.1328 27.2959 57.1232 27.0847C57.1169 26.8702 57.1072 26.6858 57.094 26.5315C57.0843 26.3773 57.0694 26.2482 57.0495 26.1443C57.033 26.037 57.0147 25.9481 56.9947 25.8777V25.8575L57.2059 25.8781C57.2696 25.8849 57.34 25.89 57.4171 25.8935C57.4975 25.8937 57.5797 25.8939 57.6635 25.894C57.7942 25.8943 57.9702 25.8795 58.1915 25.8498C58.4162 25.8167 58.7012 25.8004 59.0465 25.8011C59.3683 25.8017 59.6649 25.8458 59.9362 25.9335C60.211 26.0212 60.4487 26.149 60.6496 26.317C60.8504 26.485 61.0059 26.6915 61.116 26.9364C61.2296 27.178 61.286 27.453 61.2854 27.7614C61.285 28.0027 61.2527 28.2273 61.1886 28.435C61.1279 28.6394 61.0404 28.8253 60.9261 28.9927C60.8151 29.1601 60.6808 29.309 60.523 29.4394C60.3652 29.5665 60.189 29.6735 59.9944 29.7603L61.7547 32.2426C61.8416 32.3668 61.9218 32.4742 61.9954 32.5649C62.0724 32.6555 62.1443 32.7345 62.2112 32.8016C62.2815 32.8655 62.3484 32.9192 62.412 32.9629C62.4756 33.0033 62.541 33.0352 62.608 33.0588L62.6079 33.0789L61.1547 33.0762C61.1448 33.0125 61.1114 32.9286 61.0546 32.8246C61.0012 32.7172 60.9377 32.6115 60.8641 32.5074L59.0888 29.9949C59.0117 30.0014 58.9346 30.008 58.8575 30.0146C58.7804 30.0178 58.7016 30.0193 58.6211 30.0191C58.5273 30.019 58.4317 30.0154 58.3345 30.0085C58.2407 30.0017 58.1452 29.9897 58.048 29.9728L58.0458 31.1042ZM58.0487 29.5806C58.1392 29.6009 58.2313 29.6161 58.3252 29.6264C58.419 29.6332 58.5095 29.6368 58.5967 29.6369C58.8481 29.6374 59.0778 29.601 59.2858 29.5276C59.4938 29.4509 59.67 29.3356 59.8144 29.1816C59.9622 29.0277 60.0766 28.8369 60.1575 28.6091C60.2384 28.3779 60.2791 28.1081 60.2797 27.7997C60.2802 27.5483 60.2521 27.3203 60.1955 27.1157C60.1389 26.9111 60.0537 26.7383 59.94 26.5973C59.8297 26.4529 59.6891 26.342 59.5183 26.2646C59.3474 26.1838 59.1481 26.1432 58.9201 26.1428C58.6888 26.1423 58.5044 26.1537 58.3669 26.1769C58.2294 26.2001 58.1255 26.2251 58.055 26.2518L58.0487 29.5806ZM65.3734 33.1747C65.0013 33.174 64.6528 33.1147 64.3278 32.9967C64.0029 32.8788 63.7199 32.7073 63.479 32.4822C63.238 32.2538 63.0475 31.9735 62.9073 31.6414C62.7705 31.3059 62.7025 30.9236 62.7033 30.4945C62.704 30.1157 62.7684 29.7655 62.8964 29.4439C63.0244 29.119 63.2009 28.8377 63.426 28.6001C63.651 28.3626 63.9129 28.177 64.2115 28.0435C64.5134 27.91 64.8387 27.8435 65.1874 27.8442C65.5326 27.8448 65.8527 27.9058 66.1474 28.027C66.4422 28.1449 66.6967 28.318 66.9108 28.5464C67.1283 28.7714 67.2987 29.0516 67.4221 29.3871C67.5489 29.7192 67.6169 30.0982 67.6261 30.5239C67.2473 30.5165 66.8685 30.5108 66.4897 30.5067C66.1109 30.5026 65.717 30.5002 65.308 30.4994C65.0164 30.4989 64.7314 30.5 64.4532 30.5028C64.1783 30.5057 63.9302 30.5102 63.709 30.5165C63.7284 30.8652 63.7815 31.1804 63.8681 31.4622C63.9581 31.7439 64.08 31.9855 64.2338 32.187C64.391 32.385 64.5801 32.5379 64.8011 32.6456C65.0255 32.7533 65.2785 32.8074 65.5601 32.808C65.7546 32.8083 65.9373 32.7869 66.1084 32.7436C66.2828 32.697 66.4404 32.6336 66.5814 32.5534C66.7223 32.4733 66.8482 32.3796 66.959 32.2726C67.0699 32.1621 67.164 32.0433 67.2413 31.9161L67.3016 31.9464L66.9278 32.8407C66.7466 32.9342 66.5302 33.0143 66.2787 33.0809C66.0271 33.1441 65.7254 33.1753 65.3734 33.1747ZM64.7104 30.1061C65.0456 30.1067 65.3809 30.1073 65.7161 30.108C66.0547 30.1053 66.3614 30.0991 66.6363 30.0896C66.6067 29.7979 66.5502 29.5363 66.4668 29.3049C66.3835 29.0734 66.2766 28.8771 66.1461 28.7159C66.0157 28.5548 65.8617 28.4304 65.6842 28.3429C65.5067 28.2554 65.3107 28.2115 65.0961 28.2111C64.9017 28.2107 64.7223 28.254 64.5579 28.3408C64.3968 28.4243 64.2558 28.5464 64.1348 28.7071C64.0138 28.8678 63.9162 29.0654 63.842 29.2999C63.7678 29.5311 63.7237 29.7958 63.7098 30.0941C63.8606 30.1011 64.0198 30.1048 64.1874 30.1051C64.3551 30.1054 64.5294 30.1057 64.7104 30.1061ZM68.3029 31.6063C68.3034 31.3415 68.3575 31.112 68.4651 30.9177C68.5761 30.7235 68.7222 30.5578 68.9035 30.4207C69.0848 30.2836 69.2912 30.1734 69.5227 30.09C69.7541 30.0033 69.9939 29.9367 70.2421 29.8903C70.4903 29.8404 70.735 29.8074 70.9764 29.7911C71.2178 29.7714 71.4391 29.7601 71.6403 29.7571L71.6407 29.5007C71.6412 29.2794 71.613 29.0883 71.5563 28.9273C71.4997 28.7663 71.4195 28.6337 71.3157 28.5296C71.212 28.4221 71.0864 28.3431 70.939 28.2925C70.795 28.2386 70.6358 28.2115 70.4615 28.2112C70.3408 28.2109 70.2218 28.2208 70.1044 28.2407C69.987 28.2606 69.8646 28.2939 69.7372 28.3405C69.613 28.3872 69.4805 28.4507 69.3395 28.5309C69.202 28.6111 69.0526 28.713 68.8914 28.8368L68.8412 28.8065L69.1845 28.0981C69.2952 28.0481 69.4042 28.008 69.5116 27.9781C69.6189 27.9447 69.7279 27.9181 69.8386 27.8982C69.9492 27.8783 70.0615 27.8651 70.1755 27.8586C70.2929 27.8488 70.4153 27.844 70.5426 27.8443C70.8946 27.8449 71.1946 27.8891 71.4425 27.9767C71.6937 28.061 71.898 28.1787 72.0553 28.3298C72.2159 28.4776 72.3329 28.6522 72.4063 28.8535C72.4797 29.0514 72.5161 29.2643 72.5157 29.4923L72.5126 31.1315C72.5121 31.4165 72.5149 31.6662 72.5212 31.8808C72.5309 32.092 72.5406 32.2747 72.5504 32.429C72.5635 32.5832 72.5783 32.7123 72.5949 32.8162C72.6148 32.9202 72.6348 33.0074 72.6547 33.0778V33.0979L71.5434 33.0958L71.5435 33.0757C71.5603 33.0221 71.5722 32.9618 71.579 32.8948C71.5892 32.8277 71.5977 32.7473 71.6046 32.6534C71.5341 32.7137 71.4502 32.7755 71.3528 32.839C71.2589 32.9025 71.1498 32.961 71.0257 33.0144C70.9049 33.0645 70.769 33.1044 70.6181 33.1343C70.4706 33.1676 70.3079 33.184 70.1303 33.1837C69.547 33.1826 69.0963 33.046 68.7784 32.7738C68.4604 32.4983 68.302 32.1092 68.3029 31.6063ZM71.6395 30.1494C71.3344 30.1521 71.0411 30.17 70.7594 30.203C70.4778 30.2326 70.2279 30.2975 70.0098 30.3977C69.7951 30.4979 69.6222 30.6417 69.4911 30.8292C69.3633 31.0133 69.2992 31.2596 69.2986 31.568C69.2979 31.9635 69.3962 32.2654 69.5936 32.4737C69.791 32.6819 70.064 32.7863 70.4126 32.787C70.5735 32.7873 70.7194 32.7658 70.8502 32.7224C70.9844 32.6757 71.1018 32.619 71.2025 32.5521C71.3066 32.4819 71.3939 32.4067 71.4644 32.3263C71.535 32.2427 71.5888 32.1623 71.6258 32.0853C71.6327 31.9579 71.6364 31.8171 71.6367 31.6629C71.6369 31.5053 71.6373 31.3277 71.6377 31.1299L71.6395 30.1494ZM74.0732 27.5492C74.0737 27.2643 74.0691 27.0162 74.0595 26.805C74.0532 26.5904 74.0435 26.406 74.0304 26.2518C74.0206 26.0976 74.0058 25.9685 73.9858 25.8645C73.9693 25.7606 73.951 25.6734 73.931 25.6029L73.9311 25.5828L75.0926 25.585V25.6051C75.0723 25.6755 75.0537 25.7626 75.0368 25.8665C75.0198 25.9704 75.0045 26.0994 74.9908 26.2536C74.9771 26.4078 74.9667 26.5922 74.9596 26.8067C74.9525 27.0179 74.9487 27.2659 74.9481 27.5509L74.9413 31.1361C74.9408 31.4211 74.9437 31.6708 74.95 31.8854C74.9563 32.0966 74.966 32.2793 74.9791 32.4335C74.9922 32.5878 75.0071 32.7169 75.0236 32.8208C75.0402 32.9248 75.0585 33.012 75.0785 33.0824L75.0784 33.1025L73.9168 33.1003L73.9169 33.0802C73.9371 33.0098 73.9557 32.9227 73.9727 32.8188C73.993 32.715 74.0083 32.5859 74.0187 32.4317C74.0324 32.2776 74.0428 32.0949 74.0499 31.8837C74.0603 31.6692 74.0658 31.4194 74.0664 31.1345L74.0732 27.5492ZM80.6987 25.9024C81.1178 25.9032 81.5335 25.9023 81.9458 25.8997C82.3615 25.8971 82.742 25.8945 83.0873 25.8918C83.4326 25.8857 83.7276 25.8779 83.9723 25.8683C84.2171 25.8587 84.383 25.8456 84.4702 25.829L84.2225 26.4973C84.112 26.467 83.983 26.4399 83.8355 26.4162C83.7082 26.3958 83.5523 26.3771 83.368 26.36C83.187 26.3395 82.9775 26.3291 82.7395 26.3286C82.659 26.3285 82.5618 26.3316 82.4478 26.3381C82.3372 26.3413 82.2299 26.3461 82.126 26.3526C82.0053 26.3591 81.8829 26.3655 81.7588 26.372L81.7537 29.1175C82.0989 29.1148 82.4107 29.1054 82.689 29.0891C82.9673 29.0729 83.2036 29.0566 83.3981 29.0402C83.6261 29.0205 83.8273 28.9974 84.0016 28.9709L83.8444 29.6998C83.6131 29.6691 83.3769 29.6402 83.1355 29.6129C82.9277 29.5891 82.7015 29.5685 82.4568 29.5513C82.2121 29.5307 81.9775 29.5202 81.7529 29.5198L81.7469 32.6726C82.1425 32.6734 82.5063 32.6573 82.8382 32.6244C83.1701 32.5915 83.4602 32.5535 83.7083 32.5104C83.9967 32.464 84.26 32.4092 84.4981 32.3459L84.3507 33.1603C84.3105 33.1568 84.2502 33.1534 84.1697 33.1499C84.0893 33.1464 83.9988 33.1428 83.8982 33.1393C83.801 33.1358 83.6971 33.1322 83.5865 33.1287C83.4792 33.1285 83.377 33.1266 83.2798 33.1231C83.1825 33.1229 83.0954 33.121 83.0183 33.1175C82.9445 33.1174 82.8909 33.1173 82.8574 33.1172L80.6851 33.1131V33.093C80.7054 33.0226 80.724 32.9355 80.7409 32.8316C80.7613 32.7277 80.7783 32.5987 80.792 32.4445C80.8057 32.2904 80.8161 32.1077 80.8232 31.8965C80.8303 31.682 80.8341 31.4322 80.8346 31.1473L80.8408 27.8738C80.8414 27.5888 80.8385 27.3408 80.8322 27.1296C80.8259 26.915 80.8162 26.7306 80.8031 26.5764C80.7899 26.4188 80.7734 26.288 80.7535 26.1841C80.737 26.0801 80.7187 25.9929 80.6987 25.9225V25.9024ZM88.0696 28.9887L87.9992 28.9986C87.9759 28.9214 87.9375 28.8392 87.884 28.752C87.8339 28.6647 87.767 28.5841 87.6833 28.5102C87.603 28.4363 87.5042 28.3758 87.387 28.3287C87.2731 28.2782 87.1408 28.2528 86.9899 28.2525C86.886 28.2523 86.7871 28.2672 86.6931 28.2972C86.6026 28.3272 86.522 28.3723 86.4515 28.4325C86.3844 28.4893 86.3306 28.5613 86.2902 28.6484C86.2498 28.7355 86.2295 28.8377 86.2293 28.955C86.229 29.1193 86.279 29.2769 86.3792 29.428C86.4829 29.5757 86.6117 29.7234 86.7656 29.8712C86.9195 30.0157 87.0852 30.1618 87.2626 30.3096C87.4433 30.4575 87.6106 30.612 87.7645 30.7732C87.9184 30.9344 88.0455 31.1073 88.1457 31.2918C88.2493 31.4731 88.3009 31.6693 88.3005 31.8805C88.3002 32.0514 88.2697 32.219 88.209 32.3831C88.1484 32.5439 88.0543 32.6879 87.9266 32.815C87.8024 32.9422 87.6412 33.0458 87.4433 33.1259C87.2487 33.2026 87.0157 33.2407 86.7441 33.2402C86.5832 33.2399 86.4324 33.2246 86.2917 33.1941C86.1543 33.1637 86.027 33.1266 85.9097 33.0828C85.7958 33.0356 85.692 32.9851 85.5982 32.9313C85.5078 32.8742 85.4275 32.8204 85.3572 32.77L85.4093 31.8147L85.4897 31.8148C85.5229 31.9724 85.573 32.1167 85.6398 32.2475C85.7066 32.3784 85.7885 32.4909 85.8855 32.5849C85.9859 32.6756 86.0998 32.7479 86.227 32.8018C86.3543 32.8523 86.4934 32.8777 86.6443 32.878C86.8923 32.8785 87.0886 32.8101 87.233 32.6729C87.3807 32.5358 87.4548 32.3566 87.4552 32.1353C87.4556 31.9576 87.4056 31.795 87.3053 31.6473C87.2084 31.4962 87.0846 31.3519 86.934 31.2141C86.7834 31.0764 86.6211 30.9386 86.447 30.8009C86.2763 30.6631 86.1157 30.517 85.9651 30.3625C85.8146 30.2046 85.6892 30.0334 85.589 29.8489C85.4921 29.661 85.4439 29.448 85.4444 29.21C85.4447 29.0156 85.4803 28.838 85.551 28.6772C85.625 28.5131 85.7259 28.3741 85.8535 28.2604C85.9844 28.1433 86.1388 28.0531 86.3166 27.9897C86.4944 27.9264 86.6889 27.8949 86.9001 27.8953C87.1783 27.8958 87.4096 27.9264 87.5938 27.9871C87.7814 28.0445 87.9238 28.1 88.0209 28.1539L88.0696 28.9887ZM91.2604 32.8364C91.361 32.8366 91.4599 32.8184 91.5572 32.7817C91.6579 32.745 91.7535 32.6949 91.8441 32.6314C91.9381 32.5679 92.0271 32.4959 92.111 32.4157C92.1984 32.332 92.279 32.245 92.3529 32.1546L92.4031 32.1799L92.0748 32.9888C92.0345 33.0089 91.9842 33.0339 91.9238 33.064C91.8667 33.0907 91.7963 33.1157 91.7124 33.139C91.6319 33.1657 91.5363 33.1873 91.4257 33.2038C91.315 33.2237 91.1843 33.2335 91.0334 33.2333C90.5842 33.2324 90.2341 33.1111 89.9831 32.8692C89.7355 32.624 89.6122 32.2433 89.6132 31.7271L89.6195 28.3731L88.7747 28.4017L88.7755 27.9592C88.8795 27.9661 89.0035 27.9713 89.1476 27.975C89.2918 27.9786 89.4493 27.9806 89.6203 27.9809C89.6174 27.7429 89.6111 27.5333 89.6014 27.3523C89.595 27.1679 89.5852 27.0087 89.5721 26.8745C89.5623 26.7371 89.5491 26.6214 89.5325 26.5275C89.5159 26.4336 89.4993 26.3548 89.4827 26.2911V26.271L90.6443 26.2732V26.2933C90.624 26.3569 90.6054 26.4357 90.5885 26.5295C90.5716 26.6233 90.5563 26.7373 90.5426 26.8713C90.5323 27.0054 90.5219 27.1646 90.5115 27.349C90.5045 27.53 90.499 27.7412 90.4952 27.9825C90.7064 27.9796 90.9126 27.9766 91.1137 27.9737C91.3182 27.9673 91.5026 27.961 91.6669 27.9546C91.8345 27.9448 91.9754 27.9367 92.0893 27.9302C92.2067 27.9204 92.2838 27.9122 92.3207 27.9055L92.2292 28.4183C92.0583 28.4146 91.8789 28.4092 91.6912 28.4022C91.5303 28.3952 91.3459 28.3898 91.1381 28.386C90.9303 28.3823 90.7157 28.3785 90.4945 28.3748L90.4879 31.8343C90.4876 32.0422 90.509 32.2115 90.5524 32.3423C90.599 32.4698 90.6575 32.5705 90.7278 32.6443C90.8014 32.7182 90.8834 32.7687 90.9739 32.7957C91.0677 32.8227 91.1632 32.8363 91.2604 32.8364ZM92.9925 31.653C92.993 31.3882 93.047 31.1586 93.1547 30.9644C93.2657 30.7702 93.4118 30.6045 93.5931 30.4674C93.7744 30.3303 93.9807 30.2201 94.2122 30.1367C94.4437 30.05 94.6835 29.9834 94.9316 29.9369C95.1798 29.8871 95.4246 29.8541 95.666 29.8378C95.9074 29.8181 96.1287 29.8068 96.3298 29.8038L96.3303 29.5474C96.3307 29.3261 96.3026 29.135 96.2459 28.974C96.1892 28.8129 96.109 28.6804 96.0053 28.5763C95.9016 28.4688 95.776 28.3898 95.6286 28.3392C95.4845 28.2853 95.3254 28.2582 95.151 28.2579C95.0304 28.2576 94.9113 28.2675 94.794 28.2873C94.6766 28.3072 94.5542 28.3405 94.4267 28.3872C94.3026 28.4339 94.17 28.4974 94.0291 28.5776C93.8915 28.6577 93.7421 28.7597 93.581 28.8834L93.5308 28.8532L93.874 28.1448C93.9848 28.0947 94.0938 28.0547 94.2011 28.0247C94.3084 27.9914 94.4174 27.9648 94.5281 27.9449C94.6388 27.925 94.7511 27.9118 94.8651 27.9053C94.9824 27.8955 95.1048 27.8907 95.2322 27.8909C95.5842 27.8916 95.8841 27.9357 96.132 28.0234C96.3833 28.1077 96.5876 28.2254 96.7448 28.3765C96.9055 28.5243 97.0225 28.6989 97.0958 28.9001C97.1692 29.0981 97.2057 29.311 97.2053 29.539L97.2022 31.1782C97.2016 31.4632 97.2045 31.7129 97.2108 31.9275C97.2205 32.1387 97.2302 32.3214 97.2399 32.4756C97.2531 32.6299 97.2679 32.759 97.2845 32.8629C97.3044 32.9669 97.3243 33.0541 97.3443 33.1245V33.1446L96.233 33.1425V33.1224C96.2499 33.0688 96.2617 33.0085 96.2686 32.9414C96.2787 32.8744 96.2873 32.794 96.2942 32.7001C96.2236 32.7603 96.1397 32.8222 96.0424 32.8857C95.9484 32.9492 95.8393 33.0077 95.7152 33.0611C95.5944 33.1111 95.4586 33.1511 95.3077 33.181C95.1601 33.2142 94.9975 33.2307 94.8198 33.2304C94.2365 33.2293 93.7859 33.0926 93.4679 32.8205C93.15 32.545 92.9915 32.1558 92.9925 31.653ZM96.3291 30.196C96.024 30.1988 95.7306 30.2167 95.449 30.2497C95.1673 30.2793 94.9175 30.3442 94.6994 30.4444C94.4846 30.5445 94.3117 30.6884 94.1806 30.8758C94.0529 31.06 93.9887 31.3062 93.9882 31.6147C93.9874 32.0102 94.0857 32.3121 94.2831 32.5203C94.4805 32.7285 94.7535 32.833 95.1022 32.8336C95.2631 32.8339 95.4089 32.8124 95.5398 32.7691C95.6739 32.7224 95.7914 32.6657 95.8921 32.5988C95.9961 32.5286 96.0834 32.4533 96.154 32.373C96.2245 32.2893 96.2783 32.209 96.3153 32.132C96.3223 32.0046 96.3259 31.8638 96.3262 31.7096C96.3265 31.552 96.3268 31.3744 96.3272 31.1766L96.3291 30.196ZM100.543 32.854C100.644 32.8542 100.742 32.8359 100.84 32.7992C100.94 32.7625 101.036 32.7124 101.127 32.6489C101.221 32.5854 101.31 32.5135 101.394 32.4332C101.481 32.3496 101.561 32.2626 101.635 32.1722L101.686 32.1974L101.357 33.0064C101.317 33.0264 101.267 33.0515 101.206 33.0815C101.149 33.1082 101.079 33.1332 100.995 33.1565C100.914 33.1832 100.819 33.2048 100.708 33.2214C100.597 33.2413 100.467 33.2511 100.316 33.2508C99.8667 33.25 99.5166 33.1286 99.2656 32.8868C99.018 32.6416 98.8947 32.2609 98.8957 31.7446L98.902 28.3907L98.0572 28.4192L98.058 27.9767C98.1619 27.9836 98.286 27.9889 98.4301 27.9925C98.5742 27.9961 98.7318 27.9981 98.9028 27.9984C98.8999 27.7604 98.8935 27.5509 98.8838 27.3698C98.8775 27.1855 98.8677 27.0262 98.8546 26.8921C98.8448 26.7546 98.8316 26.6389 98.815 26.5451C98.7984 26.4512 98.7818 26.3723 98.7652 26.3086V26.2885L99.9268 26.2907L99.9267 26.3108C99.9065 26.3745 99.8879 26.4532 99.871 26.547C99.854 26.6409 99.8387 26.7548 99.8251 26.8889C99.8147 27.023 99.8044 27.1822 99.794 27.3665C99.7869 27.5475 99.7815 27.7587 99.7777 28.0001C99.9889 27.9971 100.195 27.9942 100.396 27.9912C100.601 27.9849 100.785 27.9785 100.949 27.9721C101.117 27.9624 101.258 27.9543 101.372 27.9478C101.489 27.938 101.566 27.9297 101.603 27.9231L101.512 28.4358C101.341 28.4321 101.161 28.4268 100.974 28.4197C100.813 28.4127 100.628 28.4073 100.421 28.4036C100.213 28.3998 99.9982 28.3961 99.777 28.3923L99.7704 31.8519C99.77 32.0597 99.7915 32.229 99.8348 32.3599C99.8815 32.4873 99.94 32.588 100.01 32.6619C100.084 32.7358 100.166 32.7862 100.256 32.8132C100.35 32.8402 100.446 32.8538 100.543 32.854ZM104.927 33.2495C104.555 33.2488 104.206 33.1894 103.881 33.0715C103.556 32.9535 103.274 32.782 103.033 32.557C102.792 32.3286 102.601 32.0483 102.461 31.7162C102.324 31.3807 102.256 30.9984 102.257 30.5693C102.258 30.1905 102.322 29.8403 102.45 29.5187C102.578 29.1938 102.754 28.9125 102.979 28.6749C103.205 28.4373 103.466 28.2518 103.765 28.1183C104.067 27.9847 104.392 27.9183 104.741 27.919C105.086 27.9196 105.406 27.9806 105.701 28.1018C105.996 28.2197 106.25 28.3928 106.464 28.6212C106.682 28.8462 106.852 29.1264 106.976 29.4619C107.102 29.794 107.17 30.1729 107.18 30.5987C106.801 30.5913 106.422 30.5855 106.043 30.5815C105.664 30.5774 105.271 30.575 104.862 30.5742C104.57 30.5737 104.285 30.5748 104.007 30.5776C103.732 30.5805 103.484 30.585 103.262 30.5913C103.282 30.94 103.335 31.2552 103.422 31.5369C103.512 31.8187 103.633 32.0603 103.787 32.2617C103.945 32.4598 104.134 32.6127 104.355 32.7204C104.579 32.8281 104.832 32.8822 105.114 32.8827C105.308 32.8831 105.491 32.8617 105.662 32.8184C105.836 32.7718 105.994 32.7084 106.135 32.6282C106.276 32.548 106.402 32.4544 106.513 32.3473C106.624 32.2369 106.717 32.1181 106.795 31.9909L106.855 32.0211L106.481 32.9155C106.3 33.009 106.084 33.0891 105.832 33.1556C105.581 33.2189 105.279 33.2501 104.927 33.2495ZM104.264 30.1809C104.599 30.1815 104.934 30.1821 105.27 30.1828C105.608 30.18 105.915 30.1739 106.19 30.1644C106.16 29.8727 106.104 29.6111 106.02 29.3796C105.937 29.1482 105.83 28.9519 105.7 28.7907C105.569 28.6295 105.415 28.5052 105.238 28.4177C105.06 28.3302 104.864 28.2863 104.65 28.2859C104.455 28.2855 104.276 28.3287 104.111 28.4156C103.95 28.4991 103.809 28.6212 103.688 28.7819C103.567 28.9425 103.47 29.1401 103.396 29.3747C103.321 29.6058 103.277 29.8706 103.263 30.1689C103.414 30.1759 103.573 30.1796 103.741 30.1799C103.909 30.1802 104.083 30.1805 104.264 30.1809ZM116.276 33.1804V33.1603C116.283 33.1435 116.288 33.1184 116.291 33.0849C116.295 33.0514 116.297 33.0212 116.297 32.9944C116.297 32.8905 116.282 32.7765 116.252 32.6524C116.226 32.5249 116.172 32.3673 116.092 32.1794L115.486 30.8105C115.299 30.8035 115.049 30.7996 114.737 30.799C114.425 30.7985 114.088 30.7978 113.726 30.7971C113.462 30.7966 113.205 30.7961 112.957 30.7957C112.712 30.7952 112.491 30.7981 112.293 30.8045L111.712 32.1309C111.662 32.2548 111.608 32.3905 111.551 32.5379C111.493 32.6853 111.465 32.8344 111.464 32.9853C111.464 33.0288 111.468 33.0657 111.474 33.0959C111.481 33.1227 111.488 33.1412 111.494 33.1513V33.1714L110.468 33.1694V33.1493C110.529 33.0857 110.605 32.9736 110.695 32.8128C110.786 32.6487 110.886 32.4444 110.993 32.1999L113.887 25.8143L114.289 25.815L117.008 31.9649C117.071 32.1092 117.136 32.2501 117.203 32.3877C117.273 32.5219 117.338 32.6427 117.398 32.7501C117.459 32.8575 117.512 32.9481 117.559 33.0219C117.606 33.0958 117.637 33.1428 117.654 33.1629V33.183L116.276 33.1804ZM113.023 30.3634C113.218 30.3637 113.417 30.3641 113.622 30.3645C113.826 30.3615 114.026 30.3602 114.22 30.3606C114.418 30.3576 114.607 30.3563 114.788 30.3566C114.969 30.3536 115.133 30.3506 115.281 30.3475L113.874 27.1518L112.48 30.3623L113.023 30.3634ZM120.275 35.486C120.546 35.4865 120.776 35.4567 120.964 35.3968C121.152 35.3401 121.306 35.26 121.427 35.1563C121.551 35.0526 121.645 34.927 121.709 34.7797C121.776 34.6356 121.825 34.4765 121.856 34.3022C121.89 34.128 121.908 33.942 121.912 33.7442C121.919 33.5464 121.923 33.3419 121.923 33.1307L121.924 32.9648C121.759 33.0517 121.561 33.1267 121.33 33.19C121.098 33.2499 120.837 33.2795 120.545 33.279C120.146 33.2782 119.784 33.2155 119.46 33.0909C119.135 32.9662 118.857 32.788 118.626 32.5563C118.398 32.3246 118.223 32.0443 118.099 31.7155C117.976 31.3834 117.915 31.0112 117.915 30.5989C117.916 30.2201 117.977 29.8682 118.098 29.5433C118.223 29.2183 118.396 28.9371 118.618 28.6995C118.843 28.4619 119.11 28.2763 119.419 28.1428C119.731 28.006 120.074 27.9379 120.45 27.9386C120.611 27.9389 120.758 27.9526 120.892 27.9797C121.026 28.0067 121.15 28.0438 121.264 28.091C121.381 28.1348 121.49 28.187 121.591 28.2475C121.694 28.3047 121.795 28.3669 121.892 28.4341L121.842 28.0619V28.0418L122.954 28.0439V28.064C122.933 28.1344 122.913 28.2215 122.893 28.3254C122.876 28.4293 122.861 28.5583 122.847 28.7125C122.836 28.8667 122.826 29.051 122.816 29.2656C122.809 29.4767 122.805 29.7248 122.804 30.0097L122.798 33.4291C122.797 33.7375 122.755 34.0374 122.67 34.3289C122.589 34.6238 122.45 34.885 122.251 35.1126C122.057 35.3402 121.798 35.5224 121.476 35.6592C121.154 35.796 120.753 35.864 120.274 35.8631C120.106 35.8628 119.937 35.8457 119.766 35.8119C119.595 35.7814 119.433 35.7425 119.279 35.6953C119.124 35.6514 118.985 35.6025 118.861 35.5487C118.737 35.4948 118.639 35.4477 118.565 35.4073L118.411 34.4416L118.492 34.4216C118.572 34.5961 118.68 34.7488 118.817 34.8798C118.958 35.0142 119.11 35.1251 119.274 35.2125C119.438 35.3034 119.608 35.3707 119.782 35.4146C119.959 35.4619 120.124 35.4857 120.275 35.486ZM120.772 32.9123C121.014 32.9128 121.232 32.873 121.426 32.7929C121.624 32.7128 121.79 32.6193 121.925 32.5122L121.929 30.0081C121.93 29.8204 121.928 29.6511 121.925 29.5002C121.922 29.346 121.921 29.2069 121.921 29.0828C121.841 28.9587 121.747 28.8495 121.64 28.7555C121.536 28.658 121.424 28.5774 121.304 28.5135C121.186 28.4462 121.066 28.3957 120.942 28.3619C120.818 28.3248 120.695 28.3061 120.575 28.3059C120.32 28.3054 120.09 28.3519 119.886 28.4454C119.681 28.5389 119.506 28.6743 119.362 28.8517C119.221 29.0258 119.111 29.2401 119.034 29.4947C118.96 29.746 118.922 30.0326 118.922 30.3544C118.921 30.7164 118.96 31.0534 119.04 31.3653C119.12 31.6773 119.237 31.949 119.391 32.1806C119.548 32.4089 119.742 32.5886 119.973 32.7198C120.204 32.8476 120.471 32.9118 120.772 32.9123ZM126.599 33.2904C126.227 33.2897 125.879 33.2304 125.554 33.1125C125.229 32.9945 124.946 32.823 124.705 32.598C124.464 32.3695 124.274 32.0893 124.133 31.7571C123.997 31.4216 123.929 31.0393 123.929 30.6103C123.93 30.2314 123.994 29.8813 124.122 29.5597C124.25 29.2347 124.427 28.9535 124.652 28.7159C124.877 28.4783 125.139 28.2928 125.438 28.1592C125.739 28.0257 126.065 27.9593 126.413 27.9599C126.759 27.9606 127.079 28.0215 127.374 28.1428C127.668 28.2607 127.923 28.4338 128.137 28.6621C128.354 28.8872 128.525 29.1674 128.648 29.5029C128.775 29.835 128.843 30.2139 128.852 30.6397C128.473 30.6323 128.095 30.6265 127.716 30.6224C127.337 30.6184 126.943 30.616 126.534 30.6152C126.242 30.6146 125.958 30.6158 125.679 30.6186C125.404 30.6214 125.156 30.626 124.935 30.6323C124.955 30.9809 125.008 31.2962 125.094 31.5779C125.184 31.8597 125.306 32.1013 125.46 32.3027C125.617 32.5008 125.806 32.6537 126.027 32.7614C126.252 32.8691 126.505 32.9232 126.786 32.9237C126.981 32.9241 127.163 32.9026 127.334 32.8594C127.509 32.8128 127.667 32.7494 127.807 32.6692C127.948 32.589 128.074 32.4954 128.185 32.3883C128.296 32.2779 128.39 32.1591 128.467 32.0318L128.528 32.0621L128.154 32.9565C127.973 33.05 127.756 33.13 127.505 33.1966C127.253 33.2598 126.951 33.2911 126.599 33.2904ZM125.936 30.2218C126.272 30.2225 126.607 30.2231 126.942 30.2237C127.281 30.221 127.588 30.2149 127.862 30.2054C127.833 29.9137 127.776 29.6521 127.693 29.4206C127.61 29.1891 127.503 28.9928 127.372 28.8317C127.242 28.6705 127.088 28.5462 126.91 28.4587C126.733 28.3712 126.537 28.3272 126.322 28.3268C126.128 28.3265 125.948 28.3697 125.784 28.4566C125.623 28.5401 125.482 28.6622 125.361 28.8228C125.24 28.9835 125.142 29.1811 125.068 29.4156C124.994 29.6468 124.95 29.9116 124.936 30.2099C125.087 30.2169 125.246 30.2205 125.414 30.2208C125.581 30.2212 125.755 30.2215 125.936 30.2218ZM133.394 29.8236C133.395 29.3811 133.307 29.0558 133.13 28.8476C132.952 28.6394 132.715 28.535 132.416 28.5345C132.309 28.5343 132.188 28.5575 132.054 28.6042C131.92 28.6475 131.782 28.7076 131.641 28.7844C131.501 28.8579 131.36 28.9448 131.219 29.0451C131.078 29.1454 130.945 29.2524 130.821 29.3662L130.809 30.0249L130.807 31.2418C130.807 31.5267 130.809 31.7765 130.816 31.991C130.822 32.2022 130.832 32.3849 130.845 32.5392C130.858 32.6934 130.873 32.8225 130.889 32.9264C130.906 33.0304 130.924 33.1176 130.944 33.188V33.2081L129.783 33.2059V33.1858C129.803 33.1155 129.822 33.0283 129.838 32.9245C129.859 32.8206 129.874 32.6915 129.884 32.5374C129.898 32.3832 129.909 32.2005 129.916 31.9893C129.926 31.7748 129.932 31.525 129.932 31.2401L129.934 30.0232C129.935 29.7383 129.93 29.4902 129.921 29.279C129.914 29.0644 129.905 28.88 129.892 28.7258C129.882 28.5716 129.867 28.4425 129.847 28.3385C129.831 28.2346 129.812 28.1474 129.792 28.0769V28.0568L130.954 28.059V28.0791C130.927 28.1629 130.905 28.2701 130.888 28.4008C130.874 28.5282 130.859 28.6958 130.842 28.9036C130.979 28.7899 131.127 28.6762 131.285 28.5625C131.446 28.4488 131.612 28.3486 131.783 28.2617C131.954 28.1715 132.129 28.0998 132.307 28.0465C132.484 27.9899 132.659 27.9617 132.83 27.962C133.091 27.9625 133.312 28.0082 133.493 28.099C133.677 28.1899 133.826 28.3092 133.94 28.4569C134.057 28.6046 134.141 28.7741 134.191 28.9652C134.244 29.1531 134.27 29.3442 134.27 29.5386L134.267 31.2483C134.266 31.5332 134.269 31.783 134.275 31.9976C134.282 32.2088 134.291 32.3915 134.304 32.5457C134.318 32.6999 134.332 32.829 134.349 32.933C134.366 33.0369 134.384 33.1241 134.404 33.1946V33.2147L133.242 33.2125V33.1924C133.262 33.122 133.281 33.0349 133.298 32.931C133.318 32.8271 133.334 32.6981 133.344 32.5439C133.358 32.3897 133.368 32.207 133.375 31.9959C133.386 31.7813 133.391 31.5316 133.392 31.2466L133.394 29.8236ZM139.962 32.1541L139.588 33.0485C139.498 33.0885 139.394 33.1252 139.276 33.1585C139.159 33.1918 139.037 33.2201 138.909 33.2433C138.785 33.2665 138.659 33.2831 138.532 33.2929C138.405 33.306 138.284 33.3125 138.17 33.3123C137.764 33.3115 137.389 33.2522 137.044 33.1342C136.702 33.0129 136.406 32.838 136.155 32.6095C135.907 32.3811 135.713 32.1008 135.573 31.7687C135.433 31.4366 135.363 31.0576 135.364 30.6319C135.365 30.2531 135.437 29.9029 135.582 29.5813C135.73 29.2565 135.934 28.9752 136.192 28.7377C136.454 28.5002 136.761 28.3147 137.114 28.1813C137.466 28.0479 137.848 27.9816 138.26 27.9823C138.448 27.9827 138.649 27.9998 138.864 28.0338C139.078 28.0643 139.269 28.1049 139.437 28.1555L139.792 29.011L139.732 29.0461C139.648 28.942 139.548 28.848 139.431 28.764C139.317 28.6766 139.189 28.6026 139.049 28.542C138.911 28.4814 138.766 28.4342 138.612 28.4004C138.457 28.3665 138.3 28.3495 138.139 28.3492C137.878 28.3487 137.639 28.3952 137.425 28.4886C137.21 28.5787 137.025 28.7108 136.871 28.8848C136.716 29.0589 136.595 29.2732 136.508 29.5278C136.423 29.779 136.381 30.0656 136.38 30.3874C136.38 30.7494 136.419 31.0864 136.499 31.3983C136.582 31.7103 136.704 31.982 136.865 32.2136C137.028 32.4419 137.233 32.6216 137.477 32.7528C137.725 32.8807 138.015 32.9449 138.347 32.9456C138.501 32.9459 138.653 32.9277 138.804 32.8911C138.959 32.8512 139.103 32.7961 139.237 32.726C139.375 32.6525 139.5 32.5656 139.615 32.4652C139.729 32.3649 139.825 32.2511 139.902 32.1238L139.962 32.1541ZM142.595 33.1698L140.832 29.2946C140.769 29.147 140.701 29.006 140.627 28.8718C140.554 28.7342 140.483 28.6117 140.417 28.5043C140.353 28.3969 140.296 28.308 140.246 28.2375C140.196 28.1637 140.163 28.1167 140.146 28.0965V28.0764L141.463 28.0789V28.099C141.457 28.1158 141.451 28.1409 141.448 28.1744C141.445 28.2079 141.443 28.2381 141.443 28.2649C141.443 28.3688 141.458 28.4845 141.487 28.612C141.521 28.7361 141.581 28.8921 141.668 29.0799L143.05 32.0996L144.323 29.1252C144.376 29.0013 144.43 28.8656 144.484 28.7182C144.541 28.5708 144.57 28.4217 144.571 28.2708C144.571 28.2272 144.567 28.192 144.561 28.1652C144.554 28.135 144.547 28.1149 144.541 28.1048V28.0847L145.446 28.0864V28.1065C145.385 28.1701 145.308 28.284 145.214 28.448C145.123 28.6088 145.025 28.8114 144.921 29.0559L142.512 34.7637C142.458 34.8876 142.402 35.0233 142.345 35.1707C142.291 35.3181 142.264 35.4672 142.264 35.618C142.264 35.6616 142.267 35.6968 142.274 35.7237C142.28 35.7538 142.287 35.774 142.294 35.784V35.8042L141.353 35.8024V35.7823C141.417 35.7187 141.494 35.6065 141.585 35.4458C141.679 35.2884 141.779 35.0891 141.883 34.848L142.595 33.1698Z" fill="#6F6F6F"/>
</g>
<g clip-path="url(#clip2_1_2)">
<path d="M54.0458 31.1042C54.0453 31.3891 54.0482 31.6389 54.0545 31.8535C54.0641 32.0647 54.0738 32.2474 54.0836 32.4016C54.0967 32.5558 54.1116 32.6849 54.1281 32.7889C54.148 32.8928 54.168 32.98 54.188 33.0505L54.1879 33.0706L52.9811 33.0683L52.9812 33.0482C53.0014 32.9778 53.02 32.8907 53.037 32.7868C53.0573 32.6829 53.0726 32.5539 53.0829 32.3997C53.0967 32.2455 53.1071 32.0629 53.1142 31.8517C53.1246 31.6405 53.1301 31.3908 53.1307 31.1025L53.1368 27.829C53.1374 27.544 53.1328 27.2959 53.1232 27.0847C53.1169 26.8702 53.1072 26.6858 53.094 26.5315C53.0843 26.3773 53.0694 26.2482 53.0495 26.1443C53.033 26.037 53.0147 25.9481 52.9947 25.8777V25.8575L53.2059 25.8781C53.2696 25.8849 53.34 25.89 53.4171 25.8935C53.4975 25.8937 53.5797 25.8939 53.6635 25.894C53.7942 25.8943 53.9702 25.8795 54.1915 25.8498C54.4162 25.8167 54.7012 25.8004 55.0465 25.8011C55.3683 25.8017 55.6649 25.8458 55.9362 25.9335C56.211 26.0212 56.4487 26.149 56.6496 26.317C56.8504 26.485 57.0059 26.6915 57.116 26.9364C57.2296 27.178 57.286 27.453 57.2854 27.7614C57.285 28.0027 57.2527 28.2273 57.1886 28.435C57.1279 28.6394 57.0404 28.8253 56.9261 28.9927C56.8151 29.1601 56.6808 29.309 56.523 29.4394C56.3652 29.5665 56.189 29.6735 55.9944 29.7603L57.7547 32.2426C57.8416 32.3668 57.9218 32.4742 57.9954 32.5649C58.0724 32.6555 58.1443 32.7345 58.2112 32.8016C58.2815 32.8655 58.3484 32.9192 58.412 32.9629C58.4756 33.0033 58.541 33.0352 58.608 33.0588L58.6079 33.0789L57.1547 33.0762C57.1448 33.0125 57.1114 32.9286 57.0546 32.8246C57.0012 32.7172 56.9377 32.6115 56.8641 32.5074L55.0888 29.9949C55.0117 30.0014 54.9346 30.008 54.8575 30.0146C54.7804 30.0178 54.7016 30.0193 54.6211 30.0191C54.5273 30.019 54.4317 30.0154 54.3345 30.0085C54.2407 30.0017 54.1452 29.9897 54.048 29.9728L54.0458 31.1042ZM54.0487 29.5806C54.1392 29.6009 54.2313 29.6161 54.3252 29.6264C54.419 29.6332 54.5095 29.6368 54.5967 29.6369C54.8481 29.6374 55.0778 29.601 55.2858 29.5276C55.4938 29.4509 55.67 29.3356 55.8144 29.1816C55.9622 29.0277 56.0766 28.8369 56.1575 28.6091C56.2384 28.3779 56.2791 28.1081 56.2797 27.7997C56.2802 27.5483 56.2521 27.3203 56.1955 27.1157C56.1389 26.9111 56.0537 26.7383 55.94 26.5973C55.8297 26.4529 55.6891 26.342 55.5183 26.2646C55.3474 26.1838 55.1481 26.1432 54.9201 26.1428C54.6888 26.1423 54.5044 26.1537 54.3669 26.1769C54.2294 26.2001 54.1255 26.2251 54.055 26.2518L54.0487 29.5806ZM61.3734 33.1747C61.0013 33.174 60.6528 33.1147 60.3278 32.9967C60.0029 32.8788 59.7199 32.7073 59.479 32.4822C59.238 32.2538 59.0475 31.9735 58.9073 31.6414C58.7705 31.3059 58.7025 30.9236 58.7033 30.4945C58.704 30.1157 58.7684 29.7655 58.8964 29.4439C59.0244 29.119 59.2009 28.8377 59.426 28.6001C59.651 28.3626 59.9129 28.177 60.2115 28.0435C60.5134 27.91 60.8387 27.8435 61.1874 27.8442C61.5326 27.8448 61.8527 27.9058 62.1474 28.027C62.4422 28.1449 62.6967 28.318 62.9108 28.5464C63.1283 28.7714 63.2987 29.0516 63.4221 29.3871C63.5489 29.7192 63.6169 30.0982 63.6261 30.5239C63.2473 30.5165 62.8685 30.5108 62.4897 30.5067C62.1109 30.5026 61.717 30.5002 61.308 30.4994C61.0164 30.4989 60.7314 30.5 60.4532 30.5028C60.1783 30.5057 59.9302 30.5102 59.709 30.5165C59.7284 30.8652 59.7815 31.1804 59.8681 31.4622C59.9581 31.7439 60.08 31.9855 60.2338 32.187C60.391 32.385 60.5801 32.5379 60.8011 32.6456C61.0255 32.7533 61.2785 32.8074 61.5601 32.808C61.7546 32.8083 61.9373 32.7869 62.1084 32.7436C62.2828 32.697 62.4404 32.6336 62.5814 32.5534C62.7223 32.4733 62.8482 32.3796 62.959 32.2726C63.0699 32.1621 63.164 32.0433 63.2413 31.9161L63.3016 31.9464L62.9278 32.8407C62.7466 32.9342 62.5302 33.0143 62.2787 33.0809C62.0271 33.1441 61.7254 33.1753 61.3734 33.1747ZM60.7104 30.1061C61.0456 30.1067 61.3809 30.1073 61.7161 30.108C62.0547 30.1053 62.3614 30.0991 62.6363 30.0896C62.6067 29.7979 62.5502 29.5363 62.4668 29.3049C62.3835 29.0734 62.2766 28.8771 62.1461 28.7159C62.0157 28.5548 61.8617 28.4304 61.6842 28.3429C61.5067 28.2554 61.3107 28.2115 61.0961 28.2111C60.9017 28.2107 60.7223 28.254 60.5579 28.3408C60.3968 28.4243 60.2558 28.5464 60.1348 28.7071C60.0138 28.8678 59.9162 29.0654 59.842 29.2999C59.7678 29.5311 59.7237 29.7958 59.7098 30.0941C59.8606 30.1011 60.0198 30.1048 60.1874 30.1051C60.3551 30.1054 60.5294 30.1057 60.7104 30.1061ZM64.3029 31.6063C64.3034 31.3415 64.3575 31.112 64.4651 30.9177C64.5761 30.7235 64.7222 30.5578 64.9035 30.4207C65.0848 30.2836 65.2912 30.1734 65.5227 30.09C65.7541 30.0033 65.9939 29.9367 66.2421 29.8903C66.4903 29.8404 66.735 29.8074 66.9764 29.7911C67.2178 29.7714 67.4391 29.7601 67.6403 29.7571L67.6407 29.5007C67.6412 29.2794 67.613 29.0883 67.5563 28.9273C67.4997 28.7663 67.4195 28.6337 67.3157 28.5296C67.212 28.4221 67.0864 28.3431 66.939 28.2925C66.795 28.2386 66.6358 28.2115 66.4615 28.2112C66.3408 28.2109 66.2218 28.2208 66.1044 28.2407C65.987 28.2606 65.8646 28.2939 65.7372 28.3405C65.613 28.3872 65.4805 28.4507 65.3395 28.5309C65.202 28.6111 65.0526 28.713 64.8914 28.8368L64.8412 28.8065L65.1845 28.0981C65.2952 28.0481 65.4042 28.008 65.5116 27.9781C65.6189 27.9447 65.7279 27.9181 65.8386 27.8982C65.9492 27.8783 66.0615 27.8651 66.1755 27.8586C66.2929 27.8488 66.4153 27.844 66.5426 27.8443C66.8946 27.8449 67.1946 27.8891 67.4425 27.9767C67.6937 28.061 67.898 28.1787 68.0553 28.3298C68.2159 28.4776 68.3329 28.6522 68.4063 28.8535C68.4797 29.0514 68.5161 29.2643 68.5157 29.4923L68.5126 31.1315C68.5121 31.4165 68.5149 31.6662 68.5212 31.8808C68.5309 32.092 68.5406 32.2747 68.5504 32.429C68.5635 32.5832 68.5783 32.7123 68.5949 32.8162C68.6148 32.9202 68.6348 33.0074 68.6547 33.0778V33.0979L67.5434 33.0958L67.5435 33.0757C67.5603 33.0221 67.5722 32.9618 67.579 32.8948C67.5892 32.8277 67.5977 32.7473 67.6046 32.6534C67.5341 32.7137 67.4502 32.7755 67.3528 32.839C67.2589 32.9025 67.1498 32.961 67.0257 33.0144C66.9049 33.0645 66.769 33.1044 66.6181 33.1343C66.4706 33.1676 66.3079 33.184 66.1303 33.1837C65.547 33.1826 65.0963 33.046 64.7784 32.7738C64.4604 32.4983 64.302 32.1092 64.3029 31.6063ZM67.6395 30.1494C67.3344 30.1521 67.0411 30.17 66.7594 30.203C66.4778 30.2326 66.2279 30.2975 66.0098 30.3977C65.7951 30.4979 65.6222 30.6417 65.4911 30.8292C65.3633 31.0133 65.2992 31.2596 65.2986 31.568C65.2979 31.9635 65.3962 32.2654 65.5936 32.4737C65.791 32.6819 66.064 32.7863 66.4126 32.787C66.5735 32.7873 66.7194 32.7658 66.8502 32.7224C66.9844 32.6757 67.1018 32.619 67.2025 32.5521C67.3066 32.4819 67.3939 32.4067 67.4644 32.3263C67.535 32.2427 67.5888 32.1623 67.6258 32.0853C67.6327 31.9579 67.6364 31.8171 67.6367 31.6629C67.6369 31.5053 67.6373 31.3277 67.6377 31.1299L67.6395 30.1494ZM70.0732 27.5492C70.0737 27.2643 70.0691 27.0162 70.0595 26.805C70.0532 26.5904 70.0435 26.406 70.0304 26.2518C70.0206 26.0976 70.0058 25.9685 69.9858 25.8645C69.9693 25.7606 69.951 25.6734 69.931 25.6029L69.9311 25.5828L71.0926 25.585V25.6051C71.0723 25.6755 71.0537 25.7626 71.0368 25.8665C71.0198 25.9704 71.0045 26.0994 70.9908 26.2536C70.9771 26.4078 70.9667 26.5922 70.9596 26.8067C70.9525 27.0179 70.9487 27.2659 70.9481 27.5509L70.9413 31.1361C70.9408 31.4211 70.9437 31.6708 70.95 31.8854C70.9563 32.0966 70.966 32.2793 70.9791 32.4335C70.9922 32.5878 71.0071 32.7169 71.0236 32.8208C71.0402 32.9248 71.0585 33.012 71.0785 33.0824L71.0784 33.1025L69.9168 33.1003L69.9169 33.0802C69.9371 33.0098 69.9557 32.9227 69.9727 32.8188C69.993 32.715 70.0083 32.5859 70.0187 32.4317C70.0324 32.2776 70.0428 32.0949 70.0499 31.8837C70.0603 31.6692 70.0658 31.4194 70.0664 31.1345L70.0732 27.5492ZM76.6987 25.9024C77.1178 25.9032 77.5335 25.9023 77.9458 25.8997C78.3615 25.8971 78.742 25.8945 79.0873 25.8918C79.4326 25.8857 79.7276 25.8779 79.9723 25.8683C80.2171 25.8587 80.383 25.8456 80.4702 25.829L80.2225 26.4973C80.112 26.467 79.983 26.4399 79.8355 26.4162C79.7082 26.3958 79.5523 26.3771 79.368 26.36C79.187 26.3395 78.9775 26.3291 78.7395 26.3286C78.659 26.3285 78.5618 26.3316 78.4478 26.3381C78.3372 26.3413 78.2299 26.3461 78.126 26.3526C78.0053 26.3591 77.8829 26.3655 77.7588 26.372L77.7537 29.1175C78.0989 29.1148 78.4107 29.1054 78.689 29.0891C78.9673 29.0729 79.2036 29.0566 79.3981 29.0402C79.6261 29.0205 79.8273 28.9974 80.0016 28.9709L79.8444 29.6998C79.6131 29.6691 79.3769 29.6402 79.1355 29.6129C78.9277 29.5891 78.7015 29.5685 78.4568 29.5513C78.2121 29.5307 77.9775 29.5202 77.7529 29.5198L77.7469 32.6726C78.1425 32.6734 78.5063 32.6573 78.8382 32.6244C79.1701 32.5915 79.4602 32.5535 79.7083 32.5104C79.9967 32.464 80.26 32.4092 80.4981 32.3459L80.3507 33.1603C80.3105 33.1568 80.2502 33.1534 80.1697 33.1499C80.0893 33.1464 79.9988 33.1428 79.8982 33.1393C79.801 33.1358 79.6971 33.1322 79.5865 33.1287C79.4792 33.1285 79.377 33.1266 79.2798 33.1231C79.1825 33.1229 79.0954 33.121 79.0183 33.1175C78.9445 33.1174 78.8909 33.1173 78.8574 33.1172L76.6851 33.1131V33.093C76.7054 33.0226 76.724 32.9355 76.7409 32.8316C76.7613 32.7277 76.7783 32.5987 76.792 32.4445C76.8057 32.2904 76.8161 32.1077 76.8232 31.8965C76.8303 31.682 76.8341 31.4322 76.8346 31.1473L76.8408 27.8738C76.8414 27.5888 76.8385 27.3408 76.8322 27.1296C76.8259 26.915 76.8162 26.7306 76.8031 26.5764C76.7899 26.4188 76.7734 26.288 76.7535 26.1841C76.737 26.0801 76.7187 25.9929 76.6987 25.9225V25.9024ZM84.0696 28.9887L83.9992 28.9986C83.9759 28.9214 83.9375 28.8392 83.884 28.752C83.8339 28.6647 83.767 28.5841 83.6833 28.5102C83.603 28.4363 83.5042 28.3758 83.387 28.3287C83.2731 28.2782 83.1408 28.2528 82.9899 28.2525C82.886 28.2523 82.7871 28.2672 82.6931 28.2972C82.6026 28.3272 82.522 28.3723 82.4515 28.4325C82.3844 28.4893 82.3306 28.5613 82.2902 28.6484C82.2498 28.7355 82.2295 28.8377 82.2293 28.955C82.229 29.1193 82.279 29.2769 82.3792 29.428C82.4829 29.5757 82.6117 29.7234 82.7656 29.8712C82.9195 30.0157 83.0852 30.1618 83.2626 30.3096C83.4433 30.4575 83.6106 30.612 83.7645 30.7732C83.9184 30.9344 84.0455 31.1073 84.1457 31.2918C84.2493 31.4731 84.3009 31.6693 84.3005 31.8805C84.3002 32.0514 84.2697 32.219 84.209 32.3831C84.1484 32.5439 84.0543 32.6879 83.9266 32.815C83.8024 32.9422 83.6412 33.0458 83.4433 33.1259C83.2487 33.2026 83.0157 33.2407 82.7441 33.2402C82.5832 33.2399 82.4324 33.2246 82.2917 33.1941C82.1543 33.1637 82.027 33.1266 81.9097 33.0828C81.7958 33.0356 81.692 32.9851 81.5982 32.9313C81.5078 32.8742 81.4275 32.8204 81.3572 32.77L81.4093 31.8147L81.4897 31.8148C81.5229 31.9724 81.573 32.1167 81.6398 32.2475C81.7066 32.3784 81.7885 32.4909 81.8855 32.5849C81.9859 32.6756 82.0998 32.7479 82.227 32.8018C82.3543 32.8523 82.4934 32.8777 82.6443 32.878C82.8923 32.8785 83.0886 32.8101 83.233 32.6729C83.3807 32.5358 83.4548 32.3566 83.4552 32.1353C83.4556 31.9576 83.4056 31.795 83.3053 31.6473C83.2084 31.4962 83.0846 31.3519 82.934 31.2141C82.7834 31.0764 82.6211 30.9386 82.447 30.8009C82.2763 30.6631 82.1157 30.517 81.9651 30.3625C81.8146 30.2046 81.6892 30.0334 81.589 29.8489C81.4921 29.661 81.4439 29.448 81.4444 29.21C81.4447 29.0156 81.4803 28.838 81.551 28.6772C81.625 28.5131 81.7259 28.3741 81.8535 28.2604C81.9844 28.1433 82.1388 28.0531 82.3166 27.9897C82.4944 27.9264 82.6889 27.8949 82.9001 27.8953C83.1783 27.8958 83.4096 27.9264 83.5938 27.9871C83.7814 28.0445 83.9238 28.1 84.0209 28.1539L84.0696 28.9887ZM87.2604 32.8364C87.361 32.8366 87.4599 32.8184 87.5572 32.7817C87.6579 32.745 87.7535 32.6949 87.8441 32.6314C87.9381 32.5679 88.0271 32.4959 88.111 32.4157C88.1984 32.332 88.279 32.245 88.3529 32.1546L88.4031 32.1799L88.0748 32.9888C88.0345 33.0089 87.9842 33.0339 87.9238 33.064C87.8667 33.0907 87.7963 33.1157 87.7124 33.139C87.6319 33.1657 87.5363 33.1873 87.4257 33.2038C87.315 33.2237 87.1843 33.2335 87.0334 33.2333C86.5842 33.2324 86.2341 33.1111 85.9831 32.8692C85.7355 32.624 85.6122 32.2433 85.6132 31.7271L85.6195 28.3731L84.7747 28.4017L84.7755 27.9592C84.8795 27.9661 85.0035 27.9713 85.1476 27.975C85.2918 27.9786 85.4493 27.9806 85.6203 27.9809C85.6174 27.7429 85.6111 27.5333 85.6014 27.3523C85.595 27.1679 85.5852 27.0087 85.5721 26.8745C85.5623 26.7371 85.5491 26.6214 85.5325 26.5275C85.5159 26.4336 85.4993 26.3548 85.4827 26.2911V26.271L86.6443 26.2732V26.2933C86.624 26.3569 86.6054 26.4357 86.5885 26.5295C86.5716 26.6233 86.5563 26.7373 86.5426 26.8713C86.5323 27.0054 86.5219 27.1646 86.5115 27.349C86.5045 27.53 86.499 27.7412 86.4952 27.9825C86.7064 27.9796 86.9126 27.9766 87.1137 27.9737C87.3182 27.9673 87.5026 27.961 87.6669 27.9546C87.8345 27.9448 87.9754 27.9367 88.0893 27.9302C88.2067 27.9204 88.2838 27.9122 88.3207 27.9055L88.2292 28.4183C88.0583 28.4146 87.8789 28.4092 87.6912 28.4022C87.5303 28.3952 87.3459 28.3898 87.1381 28.386C86.9303 28.3823 86.7157 28.3785 86.4945 28.3748L86.4879 31.8343C86.4876 32.0422 86.509 32.2115 86.5524 32.3423C86.599 32.4698 86.6575 32.5705 86.7278 32.6443C86.8014 32.7182 86.8834 32.7687 86.9739 32.7957C87.0677 32.8227 87.1632 32.8363 87.2604 32.8364ZM88.9925 31.653C88.993 31.3882 89.047 31.1586 89.1547 30.9644C89.2657 30.7702 89.4118 30.6045 89.5931 30.4674C89.7744 30.3303 89.9807 30.2201 90.2122 30.1367C90.4437 30.05 90.6835 29.9834 90.9316 29.9369C91.1798 29.8871 91.4246 29.8541 91.666 29.8378C91.9074 29.8181 92.1287 29.8068 92.3298 29.8038L92.3303 29.5474C92.3307 29.3261 92.3026 29.135 92.2459 28.974C92.1892 28.8129 92.109 28.6804 92.0053 28.5763C91.9016 28.4688 91.776 28.3898 91.6286 28.3392C91.4845 28.2853 91.3254 28.2582 91.151 28.2579C91.0304 28.2576 90.9113 28.2675 90.794 28.2873C90.6766 28.3072 90.5542 28.3405 90.4267 28.3872C90.3026 28.4339 90.17 28.4974 90.0291 28.5776C89.8915 28.6577 89.7421 28.7597 89.581 28.8834L89.5308 28.8532L89.874 28.1448C89.9848 28.0947 90.0938 28.0547 90.2011 28.0247C90.3084 27.9914 90.4174 27.9648 90.5281 27.9449C90.6388 27.925 90.7511 27.9118 90.8651 27.9053C90.9824 27.8955 91.1048 27.8907 91.2322 27.8909C91.5842 27.8916 91.8841 27.9357 92.132 28.0234C92.3833 28.1077 92.5876 28.2254 92.7448 28.3765C92.9055 28.5243 93.0225 28.6989 93.0958 28.9001C93.1692 29.0981 93.2057 29.311 93.2053 29.539L93.2022 31.1782C93.2016 31.4632 93.2045 31.7129 93.2108 31.9275C93.2205 32.1387 93.2302 32.3214 93.2399 32.4756C93.2531 32.6299 93.2679 32.759 93.2845 32.8629C93.3044 32.9669 93.3243 33.0541 93.3443 33.1245V33.1446L92.233 33.1425V33.1224C92.2499 33.0688 92.2617 33.0085 92.2686 32.9414C92.2787 32.8744 92.2873 32.794 92.2942 32.7001C92.2236 32.7603 92.1397 32.8222 92.0424 32.8857C91.9484 32.9492 91.8393 33.0077 91.7152 33.0611C91.5944 33.1111 91.4586 33.1511 91.3077 33.181C91.1601 33.2142 90.9975 33.2307 90.8198 33.2304C90.2365 33.2293 89.7859 33.0926 89.4679 32.8205C89.15 32.545 88.9915 32.1558 88.9925 31.653ZM92.3291 30.196C92.024 30.1988 91.7306 30.2167 91.449 30.2497C91.1673 30.2793 90.9175 30.3442 90.6994 30.4444C90.4846 30.5445 90.3117 30.6884 90.1806 30.8758C90.0529 31.06 89.9887 31.3062 89.9882 31.6147C89.9874 32.0102 90.0857 32.3121 90.2831 32.5203C90.4805 32.7285 90.7535 32.833 91.1022 32.8336C91.2631 32.8339 91.4089 32.8124 91.5398 32.7691C91.6739 32.7224 91.7914 32.6657 91.8921 32.5988C91.9961 32.5286 92.0834 32.4533 92.154 32.373C92.2245 32.2893 92.2783 32.209 92.3153 32.132C92.3223 32.0046 92.3259 31.8638 92.3262 31.7096C92.3265 31.552 92.3268 31.3744 92.3272 31.1766L92.3291 30.196ZM96.5429 32.854C96.6435 32.8542 96.7424 32.8359 96.8397 32.7992C96.9403 32.7625 97.036 32.7124 97.1266 32.6489C97.2206 32.5854 97.3095 32.5135 97.3935 32.4332C97.4808 32.3496 97.5614 32.2626 97.6354 32.1722L97.6856 32.1974L97.3572 33.0064C97.317 33.0264 97.2666 33.0515 97.2062 33.0815C97.1492 33.1082 97.0787 33.1332 96.9949 33.1565C96.9144 33.1832 96.8188 33.2048 96.7081 33.2214C96.5975 33.2413 96.4667 33.2511 96.3159 33.2508C95.8667 33.25 95.5166 33.1286 95.2656 32.8868C95.018 32.6416 94.8947 32.2609 94.8957 31.7446L94.902 28.3907L94.0572 28.4192L94.058 27.9767C94.1619 27.9836 94.286 27.9889 94.4301 27.9925C94.5742 27.9961 94.7318 27.9981 94.9028 27.9984C94.8999 27.7604 94.8935 27.5509 94.8838 27.3698C94.8775 27.1855 94.8677 27.0262 94.8546 26.8921C94.8448 26.7546 94.8316 26.6389 94.815 26.5451C94.7984 26.4512 94.7818 26.3723 94.7652 26.3086V26.2885L95.9268 26.2907L95.9267 26.3108C95.9065 26.3745 95.8879 26.4532 95.871 26.547C95.854 26.6409 95.8387 26.7548 95.8251 26.8889C95.8147 27.023 95.8044 27.1822 95.794 27.3665C95.7869 27.5475 95.7815 27.7587 95.7777 28.0001C95.9889 27.9971 96.1951 27.9942 96.3962 27.9912C96.6007 27.9849 96.7851 27.9785 96.9494 27.9721C97.117 27.9624 97.2578 27.9543 97.3718 27.9478C97.4892 27.938 97.5663 27.9297 97.6032 27.9231L97.5117 28.4358C97.3407 28.4321 97.1614 28.4268 96.9737 28.4197C96.8128 28.4127 96.6284 28.4073 96.4206 28.4036C96.2127 28.3998 95.9982 28.3961 95.777 28.3923L95.7704 31.8519C95.77 32.0597 95.7915 32.229 95.8348 32.3599C95.8815 32.4873 95.94 32.588 96.0103 32.6619C96.0839 32.7358 96.1659 32.7862 96.2564 32.8132C96.3502 32.8402 96.4457 32.8538 96.5429 32.854ZM100.927 33.2495C100.555 33.2488 100.206 33.1894 99.8814 33.0715C99.5564 32.9535 99.2735 32.782 99.0325 32.557C98.7916 32.3286 98.6011 32.0483 98.4609 31.7162C98.3241 31.3807 98.2561 30.9984 98.2569 30.5693C98.2576 30.1905 98.322 29.8403 98.45 29.5187C98.578 29.1938 98.7545 28.9125 98.9795 28.6749C99.2046 28.4373 99.4664 28.2518 99.765 28.1183C100.067 27.9847 100.392 27.9183 100.741 27.919C101.086 27.9196 101.406 27.9806 101.701 28.1018C101.996 28.2197 102.25 28.3928 102.464 28.6212C102.682 28.8462 102.852 29.1264 102.976 29.4619C103.102 29.794 103.17 30.1729 103.18 30.5987C102.801 30.5913 102.422 30.5855 102.043 30.5815C101.664 30.5774 101.271 30.575 100.862 30.5742C100.57 30.5737 100.285 30.5748 100.007 30.5776C99.7319 30.5805 99.4838 30.585 99.2625 30.5913C99.282 30.94 99.335 31.2552 99.4217 31.5369C99.5116 31.8187 99.6335 32.0603 99.7874 32.2617C99.9446 32.4598 100.134 32.6127 100.355 32.7204C100.579 32.8281 100.832 32.8822 101.114 32.8827C101.308 32.8831 101.491 32.8617 101.662 32.8184C101.836 32.7718 101.994 32.7084 102.135 32.6282C102.276 32.548 102.402 32.4544 102.513 32.3473C102.624 32.2369 102.717 32.1181 102.795 31.9909L102.855 32.0211L102.481 32.9155C102.3 33.009 102.084 33.0891 101.832 33.1556C101.581 33.2189 101.279 33.2501 100.927 33.2495ZM100.264 30.1809C100.599 30.1815 100.934 30.1821 101.27 30.1828C101.608 30.18 101.915 30.1739 102.19 30.1644C102.16 29.8727 102.104 29.6111 102.02 29.3796C101.937 29.1482 101.83 28.9519 101.7 28.7907C101.569 28.6295 101.415 28.5052 101.238 28.4177C101.06 28.3302 100.864 28.2863 100.65 28.2859C100.455 28.2855 100.276 28.3287 100.111 28.4156C99.9504 28.4991 99.8093 28.6212 99.6883 28.7819C99.5674 28.9425 99.4698 29.1401 99.3956 29.3747C99.3214 29.6058 99.2773 29.8706 99.2633 30.1689C99.4142 30.1759 99.5734 30.1796 99.741 30.1799C99.9086 30.1802 100.083 30.1805 100.264 30.1809ZM112.276 33.1804V33.1603C112.283 33.1435 112.288 33.1184 112.291 33.0849C112.295 33.0514 112.297 33.0212 112.297 32.9944C112.297 32.8905 112.282 32.7765 112.252 32.6524C112.226 32.5249 112.172 32.3673 112.092 32.1794L111.486 30.8105C111.299 30.8035 111.049 30.7996 110.737 30.799C110.425 30.7985 110.088 30.7978 109.726 30.7971C109.462 30.7966 109.205 30.7961 108.957 30.7957C108.712 30.7952 108.491 30.7981 108.293 30.8045L107.712 32.1309C107.662 32.2548 107.608 32.3905 107.551 32.5379C107.493 32.6853 107.465 32.8344 107.464 32.9853C107.464 33.0288 107.468 33.0657 107.474 33.0959C107.481 33.1227 107.488 33.1412 107.494 33.1513V33.1714L106.468 33.1694V33.1493C106.529 33.0857 106.605 32.9736 106.695 32.8128C106.786 32.6487 106.886 32.4444 106.993 32.1999L109.887 25.8143L110.289 25.815L113.008 31.9649C113.071 32.1092 113.136 32.2501 113.203 32.3877C113.273 32.5219 113.338 32.6427 113.398 32.7501C113.459 32.8575 113.512 32.9481 113.559 33.0219C113.606 33.0958 113.637 33.1428 113.654 33.1629V33.183L112.276 33.1804ZM109.023 30.3634C109.218 30.3637 109.417 30.3641 109.622 30.3645C109.826 30.3615 110.026 30.3602 110.22 30.3606C110.418 30.3576 110.607 30.3563 110.788 30.3566C110.969 30.3536 111.133 30.3506 111.281 30.3475L109.874 27.1518L108.48 30.3623L109.023 30.3634ZM116.275 35.486C116.546 35.4865 116.776 35.4567 116.964 35.3968C117.152 35.3401 117.306 35.26 117.427 35.1563C117.551 35.0526 117.645 34.927 117.709 34.7797C117.776 34.6356 117.825 34.4765 117.856 34.3022C117.89 34.128 117.908 33.942 117.912 33.7442C117.919 33.5464 117.923 33.3419 117.923 33.1307L117.924 32.9648C117.759 33.0517 117.561 33.1267 117.33 33.19C117.098 33.2499 116.837 33.2795 116.545 33.279C116.146 33.2782 115.784 33.2155 115.46 33.0909C115.135 32.9662 114.857 32.788 114.626 32.5563C114.398 32.3246 114.223 32.0443 114.099 31.7155C113.976 31.3834 113.915 31.0112 113.915 30.5989C113.916 30.2201 113.977 29.8682 114.098 29.5433C114.223 29.2183 114.396 28.9371 114.618 28.6995C114.843 28.4619 115.11 28.2763 115.419 28.1428C115.731 28.006 116.074 27.9379 116.45 27.9386C116.611 27.9389 116.758 27.9526 116.892 27.9797C117.026 28.0067 117.15 28.0438 117.264 28.091C117.381 28.1348 117.49 28.187 117.591 28.2475C117.694 28.3047 117.795 28.3669 117.892 28.4341L117.842 28.0619V28.0418L118.954 28.0439V28.064C118.933 28.1344 118.913 28.2215 118.893 28.3254C118.876 28.4293 118.861 28.5583 118.847 28.7125C118.836 28.8667 118.826 29.051 118.816 29.2656C118.809 29.4767 118.805 29.7248 118.804 30.0097L118.798 33.4291C118.797 33.7375 118.755 34.0374 118.67 34.3289C118.589 34.6238 118.45 34.885 118.251 35.1126C118.057 35.3402 117.798 35.5224 117.476 35.6592C117.154 35.796 116.753 35.864 116.274 35.8631C116.106 35.8628 115.937 35.8457 115.766 35.8119C115.595 35.7814 115.433 35.7425 115.279 35.6953C115.124 35.6514 114.985 35.6025 114.861 35.5487C114.737 35.4948 114.639 35.4477 114.565 35.4073L114.411 34.4416L114.492 34.4216C114.572 34.5961 114.68 34.7488 114.817 34.8798C114.958 35.0142 115.11 35.1251 115.274 35.2125C115.438 35.3034 115.608 35.3707 115.782 35.4146C115.959 35.4619 116.124 35.4857 116.275 35.486ZM116.772 32.9123C117.014 32.9128 117.232 32.873 117.426 32.7929C117.624 32.7128 117.79 32.6193 117.925 32.5122L117.929 30.0081C117.93 29.8204 117.928 29.6511 117.925 29.5002C117.922 29.346 117.921 29.2069 117.921 29.0828C117.841 28.9587 117.747 28.8495 117.64 28.7555C117.536 28.658 117.424 28.5774 117.304 28.5135C117.186 28.4462 117.066 28.3957 116.942 28.3619C116.818 28.3248 116.695 28.3061 116.575 28.3059C116.32 28.3054 116.09 28.3519 115.886 28.4454C115.681 28.5389 115.506 28.6743 115.362 28.8517C115.221 29.0258 115.111 29.2401 115.034 29.4947C114.96 29.746 114.922 30.0326 114.922 30.3544C114.921 30.7164 114.96 31.0534 115.04 31.3653C115.12 31.6773 115.237 31.949 115.391 32.1806C115.548 32.4089 115.742 32.5886 115.973 32.7198C116.204 32.8476 116.471 32.9118 116.772 32.9123ZM122.599 33.2904C122.227 33.2897 121.879 33.2304 121.554 33.1125C121.229 32.9945 120.946 32.823 120.705 32.598C120.464 32.3695 120.274 32.0893 120.133 31.7571C119.997 31.4216 119.929 31.0393 119.929 30.6103C119.93 30.2314 119.994 29.8813 120.122 29.5597C120.25 29.2347 120.427 28.9535 120.652 28.7159C120.877 28.4783 121.139 28.2928 121.438 28.1592C121.739 28.0257 122.065 27.9593 122.413 27.9599C122.759 27.9606 123.079 28.0215 123.374 28.1428C123.668 28.2607 123.923 28.4338 124.137 28.6621C124.354 28.8872 124.525 29.1674 124.648 29.5029C124.775 29.835 124.843 30.2139 124.852 30.6397C124.473 30.6323 124.095 30.6265 123.716 30.6224C123.337 30.6184 122.943 30.616 122.534 30.6152C122.242 30.6146 121.958 30.6158 121.679 30.6186C121.404 30.6214 121.156 30.626 120.935 30.6323C120.955 30.9809 121.008 31.2962 121.094 31.5779C121.184 31.8597 121.306 32.1013 121.46 32.3027C121.617 32.5008 121.806 32.6537 122.027 32.7614C122.252 32.8691 122.505 32.9232 122.786 32.9237C122.981 32.9241 123.163 32.9026 123.334 32.8594C123.509 32.8128 123.667 32.7494 123.807 32.6692C123.948 32.589 124.074 32.4954 124.185 32.3883C124.296 32.2779 124.39 32.1591 124.467 32.0318L124.528 32.0621L124.154 32.9565C123.973 33.05 123.756 33.13 123.505 33.1966C123.253 33.2598 122.951 33.2911 122.599 33.2904ZM121.936 30.2218C122.272 30.2225 122.607 30.2231 122.942 30.2237C123.281 30.221 123.588 30.2149 123.862 30.2054C123.833 29.9137 123.776 29.6521 123.693 29.4206C123.61 29.1891 123.503 28.9928 123.372 28.8317C123.242 28.6705 123.088 28.5462 122.91 28.4587C122.733 28.3712 122.537 28.3272 122.322 28.3268C122.128 28.3265 121.948 28.3697 121.784 28.4566C121.623 28.5401 121.482 28.6622 121.361 28.8228C121.24 28.9835 121.142 29.1811 121.068 29.4156C120.994 29.6468 120.95 29.9116 120.936 30.2099C121.087 30.2169 121.246 30.2205 121.414 30.2208C121.581 30.2212 121.755 30.2215 121.936 30.2218ZM129.394 29.8236C129.395 29.3811 129.307 29.0558 129.13 28.8476C128.952 28.6394 128.715 28.535 128.416 28.5345C128.309 28.5343 128.188 28.5575 128.054 28.6042C127.92 28.6475 127.782 28.7076 127.641 28.7844C127.501 28.8579 127.36 28.9448 127.219 29.0451C127.078 29.1454 126.945 29.2524 126.821 29.3662L126.809 30.0249L126.807 31.2418C126.807 31.5267 126.809 31.7765 126.816 31.991C126.822 32.2022 126.832 32.3849 126.845 32.5392C126.858 32.6934 126.873 32.8225 126.889 32.9264C126.906 33.0304 126.924 33.1176 126.944 33.188V33.2081L125.783 33.2059V33.1858C125.803 33.1155 125.822 33.0283 125.838 32.9245C125.859 32.8206 125.874 32.6915 125.884 32.5374C125.898 32.3832 125.909 32.2005 125.916 31.9893C125.926 31.7748 125.932 31.525 125.932 31.2401L125.934 30.0232C125.935 29.7383 125.93 29.4902 125.921 29.279C125.914 29.0644 125.905 28.88 125.892 28.7258C125.882 28.5716 125.867 28.4425 125.847 28.3385C125.831 28.2346 125.812 28.1474 125.792 28.0769V28.0568L126.954 28.059V28.0791C126.927 28.1629 126.905 28.2701 126.888 28.4008C126.874 28.5282 126.859 28.6958 126.842 28.9036C126.979 28.7899 127.127 28.6762 127.285 28.5625C127.446 28.4488 127.612 28.3486 127.783 28.2617C127.954 28.1715 128.129 28.0998 128.307 28.0465C128.484 27.9899 128.659 27.9617 128.83 27.962C129.091 27.9625 129.312 28.0082 129.493 28.099C129.677 28.1899 129.826 28.3092 129.94 28.4569C130.057 28.6046 130.141 28.7741 130.191 28.9652C130.244 29.1531 130.27 29.3442 130.27 29.5386L130.267 31.2483C130.266 31.5332 130.269 31.783 130.275 31.9976C130.282 32.2088 130.291 32.3915 130.304 32.5457C130.318 32.6999 130.332 32.829 130.349 32.933C130.366 33.0369 130.384 33.1241 130.404 33.1946V33.2147L129.242 33.2125V33.1924C129.262 33.122 129.281 33.0349 129.298 32.931C129.318 32.8271 129.334 32.6981 129.344 32.5439C129.358 32.3897 129.368 32.207 129.375 31.9959C129.386 31.7813 129.391 31.5316 129.392 31.2466L129.394 29.8236ZM135.962 32.1541L135.588 33.0485C135.498 33.0885 135.394 33.1252 135.276 33.1585C135.159 33.1918 135.037 33.2201 134.909 33.2433C134.785 33.2665 134.659 33.2831 134.532 33.2929C134.405 33.306 134.284 33.3125 134.17 33.3123C133.764 33.3115 133.389 33.2522 133.044 33.1342C132.702 33.0129 132.406 32.838 132.155 32.6095C131.907 32.3811 131.713 32.1008 131.573 31.7687C131.433 31.4366 131.363 31.0576 131.364 30.6319C131.365 30.2531 131.437 29.9029 131.582 29.5813C131.73 29.2565 131.934 28.9752 132.192 28.7377C132.454 28.5002 132.761 28.3147 133.114 28.1813C133.466 28.0479 133.848 27.9816 134.26 27.9823C134.448 27.9827 134.649 27.9998 134.864 28.0338C135.078 28.0643 135.269 28.1049 135.437 28.1555L135.792 29.011L135.732 29.0461C135.648 28.942 135.548 28.848 135.431 28.764C135.317 28.6766 135.189 28.6026 135.049 28.542C134.911 28.4814 134.766 28.4342 134.612 28.4004C134.457 28.3665 134.3 28.3495 134.139 28.3492C133.878 28.3487 133.639 28.3952 133.425 28.4886C133.21 28.5787 133.025 28.7108 132.871 28.8848C132.716 29.0589 132.595 29.2732 132.508 29.5278C132.423 29.779 132.381 30.0656 132.38 30.3874C132.38 30.7494 132.419 31.0864 132.499 31.3983C132.582 31.7103 132.704 31.982 132.865 32.2136C133.028 32.4419 133.233 32.6216 133.477 32.7528C133.725 32.8807 134.015 32.9449 134.347 32.9456C134.501 32.9459 134.653 32.9277 134.804 32.8911C134.959 32.8512 135.103 32.7961 135.237 32.726C135.375 32.6525 135.5 32.5656 135.615 32.4652C135.729 32.3649 135.825 32.2511 135.902 32.1238L135.962 32.1541ZM138.595 33.1698L136.832 29.2946C136.769 29.147 136.701 29.006 136.627 28.8718C136.554 28.7342 136.483 28.6117 136.417 28.5043C136.353 28.3969 136.296 28.308 136.246 28.2375C136.196 28.1637 136.163 28.1167 136.146 28.0965V28.0764L137.463 28.0789V28.099C137.457 28.1158 137.451 28.1409 137.448 28.1744C137.445 28.2079 137.443 28.2381 137.443 28.2649C137.443 28.3688 137.458 28.4845 137.487 28.612C137.521 28.7361 137.581 28.8921 137.668 29.0799L139.05 32.0996L140.323 29.1252C140.376 29.0013 140.43 28.8656 140.484 28.7182C140.541 28.5708 140.57 28.4217 140.571 28.2708C140.571 28.2272 140.567 28.192 140.561 28.1652C140.554 28.135 140.547 28.1149 140.541 28.1048V28.0847L141.446 28.0864V28.1065C141.385 28.1701 141.308 28.284 141.214 28.448C141.123 28.6088 141.025 28.8114 140.921 29.0559L138.512 34.7637C138.458 34.8876 138.402 35.0233 138.345 35.1707C138.291 35.3181 138.264 35.4672 138.264 35.618C138.264 35.6616 138.267 35.6968 138.274 35.7237C138.28 35.7538 138.287 35.774 138.294 35.784V35.8042L137.353 35.8024V35.7823C137.417 35.7187 137.494 35.6065 137.585 35.4458C137.679 35.2884 137.779 35.0891 137.883 34.848L138.595 33.1698Z" fill="#6F6F6F"/>
</g>
</g>
<defs>
<clipPath id="clip0_1_2">
<rect width="159" height="36" fill="white"/>
</clipPath>
<clipPath id="clip1_1_2">
<rect width="19" height="10" fill="white" transform="translate(57 26)"/>
</clipPath>
<clipPath id="clip2_1_2">
<rect width="28" height="10" fill="white" transform="translate(75 26)"/>
</clipPath>
</defs>
</svg>
